<mxfile host="app.diagrams.net" modified="2023-12-25T07:58:50.763Z" agent="Mozilla/5.0 (Macintosh; Intel Mac OS X 10_15_7) AppleWebKit/537.36 (KHTML, like Gecko) Chrome/120.0.0.0 Safari/537.36" etag="h4BQGCZ3NumNP19ZkNyu" version="22.1.11" type="github" pages="5">
  <diagram id="6a731a19-8d31-9384-78a2-239565b7b9f0" name="Function Structure Diagram">
    <mxGraphModel dx="954" dy="606" grid="1" gridSize="10" guides="1" tooltips="1" connect="1" arrows="1" fold="1" page="1" pageScale="1" pageWidth="1169" pageHeight="827" background="none" math="0" shadow="0">
      <root>
        <mxCell id="0" />
        <mxCell id="1" parent="0" />
        <mxCell id="s-n8ZswoinWRwW3bfTHx-1779" value="错题本 结构图" style="ellipse;whiteSpace=wrap;html=1;align=center;newEdgeStyle={&quot;edgeStyle&quot;:&quot;entityRelationEdgeStyle&quot;,&quot;startArrow&quot;:&quot;none&quot;,&quot;endArrow&quot;:&quot;none&quot;,&quot;segment&quot;:10,&quot;curved&quot;:1,&quot;sourcePerimeterSpacing&quot;:0,&quot;targetPerimeterSpacing&quot;:0};treeFolding=1;treeMoving=1;" vertex="1" parent="1">
          <mxGeometry x="570" y="290" width="100" height="40" as="geometry" />
        </mxCell>
        <mxCell id="s-n8ZswoinWRwW3bfTHx-1782" style="edgeStyle=entityRelationEdgeStyle;rounded=0;orthogonalLoop=1;jettySize=auto;html=1;startArrow=none;endArrow=none;segment=10;curved=1;sourcePerimeterSpacing=0;targetPerimeterSpacing=0;exitX=0;exitY=0.5;exitDx=0;exitDy=0;" edge="1" parent="1" source="s-n8ZswoinWRwW3bfTHx-1780" target="s-n8ZswoinWRwW3bfTHx-1779">
          <mxGeometry relative="1" as="geometry" />
        </mxCell>
        <mxCell id="s-n8ZswoinWRwW3bfTHx-1815" style="edgeStyle=entityRelationEdgeStyle;rounded=0;orthogonalLoop=1;jettySize=auto;html=1;startArrow=none;endArrow=none;segment=10;curved=1;sourcePerimeterSpacing=0;targetPerimeterSpacing=0;entryX=0;entryY=0.5;entryDx=0;entryDy=0;" edge="1" parent="1" source="s-n8ZswoinWRwW3bfTHx-1780" target="s-n8ZswoinWRwW3bfTHx-1811">
          <mxGeometry relative="1" as="geometry" />
        </mxCell>
        <mxCell id="s-n8ZswoinWRwW3bfTHx-1816" style="edgeStyle=entityRelationEdgeStyle;rounded=0;orthogonalLoop=1;jettySize=auto;html=1;startArrow=none;endArrow=none;segment=10;curved=1;sourcePerimeterSpacing=0;targetPerimeterSpacing=0;entryX=0;entryY=0.5;entryDx=0;entryDy=0;" edge="1" parent="1" source="s-n8ZswoinWRwW3bfTHx-1780" target="s-n8ZswoinWRwW3bfTHx-1813">
          <mxGeometry relative="1" as="geometry" />
        </mxCell>
        <mxCell id="EeBT2lqjq_bAMcfWPO_9-10" style="edgeStyle=entityRelationEdgeStyle;rounded=0;orthogonalLoop=1;jettySize=auto;html=1;startArrow=none;endArrow=none;segment=10;curved=1;sourcePerimeterSpacing=0;targetPerimeterSpacing=0;entryX=0;entryY=0.5;entryDx=0;entryDy=0;" edge="1" parent="1" source="s-n8ZswoinWRwW3bfTHx-1780" target="EeBT2lqjq_bAMcfWPO_9-8">
          <mxGeometry relative="1" as="geometry" />
        </mxCell>
        <mxCell id="EeBT2lqjq_bAMcfWPO_9-12" style="edgeStyle=entityRelationEdgeStyle;rounded=0;orthogonalLoop=1;jettySize=auto;html=1;startArrow=none;endArrow=none;segment=10;curved=1;sourcePerimeterSpacing=0;targetPerimeterSpacing=0;entryX=0;entryY=0.5;entryDx=0;entryDy=0;" edge="1" parent="1" source="s-n8ZswoinWRwW3bfTHx-1780" target="EeBT2lqjq_bAMcfWPO_9-11">
          <mxGeometry relative="1" as="geometry" />
        </mxCell>
        <mxCell id="s-n8ZswoinWRwW3bfTHx-1780" value="拍照上传" style="whiteSpace=wrap;html=1;rounded=1;arcSize=50;align=center;verticalAlign=middle;strokeWidth=1;autosize=1;spacing=4;treeFolding=1;treeMoving=1;newEdgeStyle={&quot;edgeStyle&quot;:&quot;entityRelationEdgeStyle&quot;,&quot;startArrow&quot;:&quot;none&quot;,&quot;endArrow&quot;:&quot;none&quot;,&quot;segment&quot;:10,&quot;curved&quot;:1,&quot;sourcePerimeterSpacing&quot;:0,&quot;targetPerimeterSpacing&quot;:0};" vertex="1" parent="1">
          <mxGeometry x="720" y="190" width="90" height="30" as="geometry" />
        </mxCell>
        <mxCell id="s-n8ZswoinWRwW3bfTHx-1805" style="edgeStyle=entityRelationEdgeStyle;rounded=0;orthogonalLoop=1;jettySize=auto;html=1;startArrow=none;endArrow=none;segment=10;curved=1;sourcePerimeterSpacing=0;targetPerimeterSpacing=0;entryX=0;entryY=0.5;entryDx=0;entryDy=0;" edge="1" parent="1" source="s-n8ZswoinWRwW3bfTHx-1783" target="s-n8ZswoinWRwW3bfTHx-1797">
          <mxGeometry relative="1" as="geometry" />
        </mxCell>
        <mxCell id="s-n8ZswoinWRwW3bfTHx-1808" style="edgeStyle=entityRelationEdgeStyle;rounded=0;orthogonalLoop=1;jettySize=auto;html=1;startArrow=none;endArrow=none;segment=10;curved=1;sourcePerimeterSpacing=0;targetPerimeterSpacing=0;entryX=0;entryY=0.5;entryDx=0;entryDy=0;" edge="1" parent="1" source="s-n8ZswoinWRwW3bfTHx-1783" target="s-n8ZswoinWRwW3bfTHx-1807">
          <mxGeometry relative="1" as="geometry" />
        </mxCell>
        <mxCell id="s-n8ZswoinWRwW3bfTHx-1810" style="edgeStyle=entityRelationEdgeStyle;rounded=0;orthogonalLoop=1;jettySize=auto;html=1;startArrow=none;endArrow=none;segment=10;curved=1;sourcePerimeterSpacing=0;targetPerimeterSpacing=0;entryX=0;entryY=0.5;entryDx=0;entryDy=0;" edge="1" parent="1" source="s-n8ZswoinWRwW3bfTHx-1783" target="s-n8ZswoinWRwW3bfTHx-1809">
          <mxGeometry relative="1" as="geometry" />
        </mxCell>
        <mxCell id="EeBT2lqjq_bAMcfWPO_9-2" style="edgeStyle=entityRelationEdgeStyle;rounded=0;orthogonalLoop=1;jettySize=auto;html=1;startArrow=none;endArrow=none;segment=10;curved=1;sourcePerimeterSpacing=0;targetPerimeterSpacing=0;entryX=0;entryY=0.5;entryDx=0;entryDy=0;" edge="1" parent="1" source="s-n8ZswoinWRwW3bfTHx-1783" target="EeBT2lqjq_bAMcfWPO_9-1">
          <mxGeometry relative="1" as="geometry" />
        </mxCell>
        <mxCell id="EeBT2lqjq_bAMcfWPO_9-6" style="edgeStyle=entityRelationEdgeStyle;rounded=0;orthogonalLoop=1;jettySize=auto;html=1;startArrow=none;endArrow=none;segment=10;curved=1;sourcePerimeterSpacing=0;targetPerimeterSpacing=0;entryX=0;entryY=0.5;entryDx=0;entryDy=0;" edge="1" parent="1" source="s-n8ZswoinWRwW3bfTHx-1783" target="EeBT2lqjq_bAMcfWPO_9-3">
          <mxGeometry relative="1" as="geometry" />
        </mxCell>
        <mxCell id="s-n8ZswoinWRwW3bfTHx-1783" value="错题库" style="whiteSpace=wrap;html=1;rounded=1;arcSize=50;align=center;verticalAlign=middle;strokeWidth=1;autosize=1;spacing=4;treeFolding=1;treeMoving=1;newEdgeStyle={&quot;edgeStyle&quot;:&quot;entityRelationEdgeStyle&quot;,&quot;startArrow&quot;:&quot;none&quot;,&quot;endArrow&quot;:&quot;none&quot;,&quot;segment&quot;:10,&quot;curved&quot;:1,&quot;sourcePerimeterSpacing&quot;:0,&quot;targetPerimeterSpacing&quot;:0};" vertex="1" parent="1">
          <mxGeometry x="730" y="384" width="80" height="30" as="geometry" />
        </mxCell>
        <mxCell id="s-n8ZswoinWRwW3bfTHx-1784" value="" style="edgeStyle=entityRelationEdgeStyle;startArrow=none;endArrow=none;segment=10;curved=1;sourcePerimeterSpacing=0;targetPerimeterSpacing=0;rounded=0;exitX=1;exitY=0.5;exitDx=0;exitDy=0;" edge="1" target="s-n8ZswoinWRwW3bfTHx-1783" parent="1" source="s-n8ZswoinWRwW3bfTHx-1779">
          <mxGeometry relative="1" as="geometry">
            <mxPoint x="685" y="435" as="sourcePoint" />
          </mxGeometry>
        </mxCell>
        <mxCell id="s-n8ZswoinWRwW3bfTHx-1790" style="edgeStyle=entityRelationEdgeStyle;rounded=0;orthogonalLoop=1;jettySize=auto;html=1;startArrow=none;endArrow=none;segment=10;curved=1;sourcePerimeterSpacing=0;targetPerimeterSpacing=0;entryX=0;entryY=0.5;entryDx=0;entryDy=0;" edge="1" parent="1" source="s-n8ZswoinWRwW3bfTHx-1787" target="s-n8ZswoinWRwW3bfTHx-1779">
          <mxGeometry relative="1" as="geometry" />
        </mxCell>
        <mxCell id="s-n8ZswoinWRwW3bfTHx-1787" value="用户账户" style="whiteSpace=wrap;html=1;rounded=1;arcSize=50;align=center;verticalAlign=middle;strokeWidth=1;autosize=1;spacing=4;treeFolding=1;treeMoving=1;newEdgeStyle={&quot;edgeStyle&quot;:&quot;entityRelationEdgeStyle&quot;,&quot;startArrow&quot;:&quot;none&quot;,&quot;endArrow&quot;:&quot;none&quot;,&quot;segment&quot;:10,&quot;curved&quot;:1,&quot;sourcePerimeterSpacing&quot;:0,&quot;targetPerimeterSpacing&quot;:0};" vertex="1" parent="1">
          <mxGeometry x="430" y="228" width="90" height="30" as="geometry" />
        </mxCell>
        <mxCell id="s-n8ZswoinWRwW3bfTHx-1792" style="edgeStyle=entityRelationEdgeStyle;rounded=0;orthogonalLoop=1;jettySize=auto;html=1;startArrow=none;endArrow=none;segment=10;curved=1;sourcePerimeterSpacing=0;targetPerimeterSpacing=0;entryX=0;entryY=0.5;entryDx=0;entryDy=0;" edge="1" parent="1" source="s-n8ZswoinWRwW3bfTHx-1789" target="s-n8ZswoinWRwW3bfTHx-1787">
          <mxGeometry relative="1" as="geometry" />
        </mxCell>
        <mxCell id="s-n8ZswoinWRwW3bfTHx-1789" value="登陆" style="whiteSpace=wrap;html=1;rounded=1;arcSize=50;align=center;verticalAlign=middle;strokeWidth=1;autosize=1;spacing=4;treeFolding=1;treeMoving=1;newEdgeStyle={&quot;edgeStyle&quot;:&quot;entityRelationEdgeStyle&quot;,&quot;startArrow&quot;:&quot;none&quot;,&quot;endArrow&quot;:&quot;none&quot;,&quot;segment&quot;:10,&quot;curved&quot;:1,&quot;sourcePerimeterSpacing&quot;:0,&quot;targetPerimeterSpacing&quot;:0};" vertex="1" parent="1">
          <mxGeometry x="290" y="228" width="70" height="30" as="geometry" />
        </mxCell>
        <mxCell id="s-n8ZswoinWRwW3bfTHx-1796" style="edgeStyle=entityRelationEdgeStyle;rounded=0;orthogonalLoop=1;jettySize=auto;html=1;startArrow=none;endArrow=none;segment=10;curved=1;sourcePerimeterSpacing=0;targetPerimeterSpacing=0;entryX=0;entryY=0.5;entryDx=0;entryDy=0;" edge="1" parent="1" source="s-n8ZswoinWRwW3bfTHx-1795" target="s-n8ZswoinWRwW3bfTHx-1779">
          <mxGeometry relative="1" as="geometry" />
        </mxCell>
        <mxCell id="EeBT2lqjq_bAMcfWPO_9-15" style="edgeStyle=entityRelationEdgeStyle;rounded=0;orthogonalLoop=1;jettySize=auto;html=1;startArrow=none;endArrow=none;segment=10;curved=1;sourcePerimeterSpacing=0;targetPerimeterSpacing=0;entryX=1;entryY=0.5;entryDx=0;entryDy=0;" edge="1" parent="1" source="s-n8ZswoinWRwW3bfTHx-1795" target="EeBT2lqjq_bAMcfWPO_9-13">
          <mxGeometry relative="1" as="geometry" />
        </mxCell>
        <mxCell id="s-n8ZswoinWRwW3bfTHx-1795" value="错题练习" style="whiteSpace=wrap;html=1;rounded=1;arcSize=50;align=center;verticalAlign=middle;strokeWidth=1;autosize=1;spacing=4;treeFolding=1;treeMoving=1;newEdgeStyle={&quot;edgeStyle&quot;:&quot;entityRelationEdgeStyle&quot;,&quot;startArrow&quot;:&quot;none&quot;,&quot;endArrow&quot;:&quot;none&quot;,&quot;segment&quot;:10,&quot;curved&quot;:1,&quot;sourcePerimeterSpacing&quot;:0,&quot;targetPerimeterSpacing&quot;:0};" vertex="1" parent="1">
          <mxGeometry x="430" y="384" width="90" height="30" as="geometry" />
        </mxCell>
        <mxCell id="s-n8ZswoinWRwW3bfTHx-1797" value="错题推荐" style="whiteSpace=wrap;html=1;rounded=1;arcSize=50;align=center;verticalAlign=middle;strokeWidth=1;autosize=1;spacing=4;treeFolding=1;treeMoving=1;newEdgeStyle={&quot;edgeStyle&quot;:&quot;entityRelationEdgeStyle&quot;,&quot;startArrow&quot;:&quot;none&quot;,&quot;endArrow&quot;:&quot;none&quot;,&quot;segment&quot;:10,&quot;curved&quot;:1,&quot;sourcePerimeterSpacing&quot;:0,&quot;targetPerimeterSpacing&quot;:0};" vertex="1" parent="1">
          <mxGeometry x="840" y="300" width="90" height="30" as="geometry" />
        </mxCell>
        <mxCell id="s-n8ZswoinWRwW3bfTHx-1807" value="错题库展示" style="whiteSpace=wrap;html=1;rounded=1;arcSize=50;align=center;verticalAlign=middle;strokeWidth=1;autosize=1;spacing=4;treeFolding=1;treeMoving=1;newEdgeStyle={&quot;edgeStyle&quot;:&quot;entityRelationEdgeStyle&quot;,&quot;startArrow&quot;:&quot;none&quot;,&quot;endArrow&quot;:&quot;none&quot;,&quot;segment&quot;:10,&quot;curved&quot;:1,&quot;sourcePerimeterSpacing&quot;:0,&quot;targetPerimeterSpacing&quot;:0};" vertex="1" parent="1">
          <mxGeometry x="865" y="340" width="100" height="30" as="geometry" />
        </mxCell>
        <mxCell id="s-n8ZswoinWRwW3bfTHx-1809" value="错题详情" style="whiteSpace=wrap;html=1;rounded=1;arcSize=50;align=center;verticalAlign=middle;strokeWidth=1;autosize=1;spacing=4;treeFolding=1;treeMoving=1;newEdgeStyle={&quot;edgeStyle&quot;:&quot;entityRelationEdgeStyle&quot;,&quot;startArrow&quot;:&quot;none&quot;,&quot;endArrow&quot;:&quot;none&quot;,&quot;segment&quot;:10,&quot;curved&quot;:1,&quot;sourcePerimeterSpacing&quot;:0,&quot;targetPerimeterSpacing&quot;:0};" vertex="1" parent="1">
          <mxGeometry x="865" y="430" width="90" height="30" as="geometry" />
        </mxCell>
        <mxCell id="s-n8ZswoinWRwW3bfTHx-1811" value="拍照" style="whiteSpace=wrap;html=1;rounded=1;arcSize=50;align=center;verticalAlign=middle;strokeWidth=1;autosize=1;spacing=4;treeFolding=1;treeMoving=1;newEdgeStyle={&quot;edgeStyle&quot;:&quot;entityRelationEdgeStyle&quot;,&quot;startArrow&quot;:&quot;none&quot;,&quot;endArrow&quot;:&quot;none&quot;,&quot;segment&quot;:10,&quot;curved&quot;:1,&quot;sourcePerimeterSpacing&quot;:0,&quot;targetPerimeterSpacing&quot;:0};" vertex="1" parent="1">
          <mxGeometry x="840" y="120" width="70" height="30" as="geometry" />
        </mxCell>
        <mxCell id="s-n8ZswoinWRwW3bfTHx-1813" value="修改" style="whiteSpace=wrap;html=1;rounded=1;arcSize=50;align=center;verticalAlign=middle;strokeWidth=1;autosize=1;spacing=4;treeFolding=1;treeMoving=1;newEdgeStyle={&quot;edgeStyle&quot;:&quot;entityRelationEdgeStyle&quot;,&quot;startArrow&quot;:&quot;none&quot;,&quot;endArrow&quot;:&quot;none&quot;,&quot;segment&quot;:10,&quot;curved&quot;:1,&quot;sourcePerimeterSpacing&quot;:0,&quot;targetPerimeterSpacing&quot;:0};" vertex="1" parent="1">
          <mxGeometry x="865" y="210" width="70" height="30" as="geometry" />
        </mxCell>
        <mxCell id="s-n8ZswoinWRwW3bfTHx-1823" style="edgeStyle=entityRelationEdgeStyle;rounded=0;orthogonalLoop=1;jettySize=auto;html=1;startArrow=none;endArrow=none;segment=10;curved=1;sourcePerimeterSpacing=0;targetPerimeterSpacing=0;" edge="1" parent="1" source="s-n8ZswoinWRwW3bfTHx-1818">
          <mxGeometry relative="1" as="geometry">
            <mxPoint x="430" y="400" as="targetPoint" />
          </mxGeometry>
        </mxCell>
        <mxCell id="s-n8ZswoinWRwW3bfTHx-1818" value="答案批改" style="whiteSpace=wrap;html=1;rounded=1;arcSize=50;align=center;verticalAlign=middle;strokeWidth=1;autosize=1;spacing=4;treeFolding=1;treeMoving=1;newEdgeStyle={&quot;edgeStyle&quot;:&quot;entityRelationEdgeStyle&quot;,&quot;startArrow&quot;:&quot;none&quot;,&quot;endArrow&quot;:&quot;none&quot;,&quot;segment&quot;:10,&quot;curved&quot;:1,&quot;sourcePerimeterSpacing&quot;:0,&quot;targetPerimeterSpacing&quot;:0};" vertex="1" parent="1">
          <mxGeometry x="280" y="430" width="90" height="30" as="geometry" />
        </mxCell>
        <mxCell id="s-n8ZswoinWRwW3bfTHx-1822" style="edgeStyle=entityRelationEdgeStyle;rounded=0;orthogonalLoop=1;jettySize=auto;html=1;startArrow=none;endArrow=none;segment=10;curved=1;sourcePerimeterSpacing=0;targetPerimeterSpacing=0;entryX=0;entryY=0.5;entryDx=0;entryDy=0;" edge="1" parent="1" source="s-n8ZswoinWRwW3bfTHx-1819" target="s-n8ZswoinWRwW3bfTHx-1795">
          <mxGeometry relative="1" as="geometry" />
        </mxCell>
        <mxCell id="s-n8ZswoinWRwW3bfTHx-1819" value="输入答案" style="whiteSpace=wrap;html=1;rounded=1;arcSize=50;align=center;verticalAlign=middle;strokeWidth=1;autosize=1;spacing=4;treeFolding=1;treeMoving=1;newEdgeStyle={&quot;edgeStyle&quot;:&quot;entityRelationEdgeStyle&quot;,&quot;startArrow&quot;:&quot;none&quot;,&quot;endArrow&quot;:&quot;none&quot;,&quot;segment&quot;:10,&quot;curved&quot;:1,&quot;sourcePerimeterSpacing&quot;:0,&quot;targetPerimeterSpacing&quot;:0};" vertex="1" parent="1">
          <mxGeometry x="280" y="384" width="90" height="30" as="geometry" />
        </mxCell>
        <mxCell id="EeBT2lqjq_bAMcfWPO_9-1" value="单个错题练习生成" style="whiteSpace=wrap;html=1;rounded=1;arcSize=50;align=center;verticalAlign=middle;strokeWidth=1;autosize=1;spacing=4;treeFolding=1;treeMoving=1;newEdgeStyle={&quot;edgeStyle&quot;:&quot;entityRelationEdgeStyle&quot;,&quot;startArrow&quot;:&quot;none&quot;,&quot;endArrow&quot;:&quot;none&quot;,&quot;segment&quot;:10,&quot;curved&quot;:1,&quot;sourcePerimeterSpacing&quot;:0,&quot;targetPerimeterSpacing&quot;:0};" vertex="1" parent="1">
          <mxGeometry x="840" y="480" width="140" height="30" as="geometry" />
        </mxCell>
        <mxCell id="EeBT2lqjq_bAMcfWPO_9-3" value="批量生成错题" style="whiteSpace=wrap;html=1;rounded=1;arcSize=50;align=center;verticalAlign=middle;strokeWidth=1;autosize=1;spacing=4;treeFolding=1;treeMoving=1;newEdgeStyle={&quot;edgeStyle&quot;:&quot;entityRelationEdgeStyle&quot;,&quot;startArrow&quot;:&quot;none&quot;,&quot;endArrow&quot;:&quot;none&quot;,&quot;segment&quot;:10,&quot;curved&quot;:1,&quot;sourcePerimeterSpacing&quot;:0,&quot;targetPerimeterSpacing&quot;:0};" vertex="1" parent="1">
          <mxGeometry x="875" y="384" width="120" height="30" as="geometry" />
        </mxCell>
        <mxCell id="EeBT2lqjq_bAMcfWPO_9-8" value="选取内容" style="whiteSpace=wrap;html=1;rounded=1;arcSize=50;align=center;verticalAlign=middle;strokeWidth=1;autosize=1;spacing=4;treeFolding=1;treeMoving=1;newEdgeStyle={&quot;edgeStyle&quot;:&quot;entityRelationEdgeStyle&quot;,&quot;startArrow&quot;:&quot;none&quot;,&quot;endArrow&quot;:&quot;none&quot;,&quot;segment&quot;:10,&quot;curved&quot;:1,&quot;sourcePerimeterSpacing&quot;:0,&quot;targetPerimeterSpacing&quot;:0};" vertex="1" parent="1">
          <mxGeometry x="865" y="160" width="90" height="30" as="geometry" />
        </mxCell>
        <mxCell id="EeBT2lqjq_bAMcfWPO_9-11" value="保存" style="whiteSpace=wrap;html=1;rounded=1;arcSize=50;align=center;verticalAlign=middle;strokeWidth=1;autosize=1;spacing=4;treeFolding=1;treeMoving=1;newEdgeStyle={&quot;edgeStyle&quot;:&quot;entityRelationEdgeStyle&quot;,&quot;startArrow&quot;:&quot;none&quot;,&quot;endArrow&quot;:&quot;none&quot;,&quot;segment&quot;:10,&quot;curved&quot;:1,&quot;sourcePerimeterSpacing&quot;:0,&quot;targetPerimeterSpacing&quot;:0};" vertex="1" parent="1">
          <mxGeometry x="840" y="250" width="70" height="30" as="geometry" />
        </mxCell>
        <mxCell id="EeBT2lqjq_bAMcfWPO_9-13" value="题目展示" style="whiteSpace=wrap;html=1;rounded=1;arcSize=50;align=center;verticalAlign=middle;strokeWidth=1;autosize=1;spacing=4;treeFolding=1;treeMoving=1;newEdgeStyle={&quot;edgeStyle&quot;:&quot;entityRelationEdgeStyle&quot;,&quot;startArrow&quot;:&quot;none&quot;,&quot;endArrow&quot;:&quot;none&quot;,&quot;segment&quot;:10,&quot;curved&quot;:1,&quot;sourcePerimeterSpacing&quot;:0,&quot;targetPerimeterSpacing&quot;:0};" vertex="1" parent="1">
          <mxGeometry x="280" y="340" width="90" height="30" as="geometry" />
        </mxCell>
      </root>
    </mxGraphModel>
  </diagram>
  <diagram id="y46MxKUUoyWQUnrHKwKG" name="Information Structure Diagram">
    <mxGraphModel dx="954" dy="606" grid="1" gridSize="10" guides="1" tooltips="1" connect="1" arrows="1" fold="1" page="1" pageScale="1" pageWidth="850" pageHeight="1100" math="0" shadow="0">
      <root>
        <mxCell id="0" />
        <mxCell id="1" parent="0" />
        <mxCell id="2T7LsfZzMVVYiU9xrfJ1-5" style="edgeStyle=entityRelationEdgeStyle;rounded=0;orthogonalLoop=1;jettySize=auto;html=1;startArrow=none;endArrow=none;segment=10;curved=1;sourcePerimeterSpacing=0;targetPerimeterSpacing=0;entryX=0.5;entryY=1;entryDx=0;entryDy=0;exitX=0.5;exitY=0;exitDx=0;exitDy=0;" edge="1" parent="1" source="2T7LsfZzMVVYiU9xrfJ1-2" target="2T7LsfZzMVVYiU9xrfJ1-3">
          <mxGeometry relative="1" as="geometry" />
        </mxCell>
        <mxCell id="n_tnNFl8hgzOfr8jNIPU-4" style="edgeStyle=entityRelationEdgeStyle;rounded=0;orthogonalLoop=1;jettySize=auto;html=1;startArrow=none;endArrow=none;segment=10;curved=1;sourcePerimeterSpacing=0;targetPerimeterSpacing=0;entryX=0.5;entryY=0;entryDx=0;entryDy=0;exitX=0.5;exitY=1;exitDx=0;exitDy=0;" edge="1" parent="1" source="2T7LsfZzMVVYiU9xrfJ1-2" target="n_tnNFl8hgzOfr8jNIPU-3">
          <mxGeometry relative="1" as="geometry" />
        </mxCell>
        <mxCell id="2T7LsfZzMVVYiU9xrfJ1-2" value="用户" style="ellipse;whiteSpace=wrap;html=1;align=center;newEdgeStyle={&quot;edgeStyle&quot;:&quot;entityRelationEdgeStyle&quot;,&quot;startArrow&quot;:&quot;none&quot;,&quot;endArrow&quot;:&quot;none&quot;,&quot;segment&quot;:10,&quot;curved&quot;:1,&quot;sourcePerimeterSpacing&quot;:0,&quot;targetPerimeterSpacing&quot;:0};treeFolding=1;treeMoving=1;" vertex="1" parent="1">
          <mxGeometry x="300" y="180" width="100" height="40" as="geometry" />
        </mxCell>
        <mxCell id="2T7LsfZzMVVYiU9xrfJ1-3" value="唯一识别码" style="whiteSpace=wrap;html=1;rounded=1;arcSize=50;align=center;verticalAlign=middle;strokeWidth=1;autosize=1;spacing=4;treeFolding=1;treeMoving=1;newEdgeStyle={&quot;edgeStyle&quot;:&quot;entityRelationEdgeStyle&quot;,&quot;startArrow&quot;:&quot;none&quot;,&quot;endArrow&quot;:&quot;none&quot;,&quot;segment&quot;:10,&quot;curved&quot;:1,&quot;sourcePerimeterSpacing&quot;:0,&quot;targetPerimeterSpacing&quot;:0};" vertex="1" parent="1">
          <mxGeometry x="230" y="110" width="100" height="30" as="geometry" />
        </mxCell>
        <mxCell id="n_tnNFl8hgzOfr8jNIPU-32" style="edgeStyle=entityRelationEdgeStyle;rounded=0;orthogonalLoop=1;jettySize=auto;html=1;startArrow=none;endArrow=none;segment=10;curved=1;sourcePerimeterSpacing=0;targetPerimeterSpacing=0;entryX=0;entryY=0.5;entryDx=0;entryDy=0;" edge="1" parent="1" source="n_tnNFl8hgzOfr8jNIPU-3" target="n_tnNFl8hgzOfr8jNIPU-5">
          <mxGeometry relative="1" as="geometry" />
        </mxCell>
        <mxCell id="n_tnNFl8hgzOfr8jNIPU-33" style="edgeStyle=entityRelationEdgeStyle;rounded=0;orthogonalLoop=1;jettySize=auto;html=1;startArrow=none;endArrow=none;segment=10;curved=1;sourcePerimeterSpacing=0;targetPerimeterSpacing=0;entryX=1;entryY=0.5;entryDx=0;entryDy=0;" edge="1" parent="1" source="n_tnNFl8hgzOfr8jNIPU-3" target="n_tnNFl8hgzOfr8jNIPU-20">
          <mxGeometry relative="1" as="geometry" />
        </mxCell>
        <mxCell id="n_tnNFl8hgzOfr8jNIPU-3" value="错题本" style="ellipse;whiteSpace=wrap;html=1;align=center;newEdgeStyle={&quot;edgeStyle&quot;:&quot;entityRelationEdgeStyle&quot;,&quot;startArrow&quot;:&quot;none&quot;,&quot;endArrow&quot;:&quot;none&quot;,&quot;segment&quot;:10,&quot;curved&quot;:1,&quot;sourcePerimeterSpacing&quot;:0,&quot;targetPerimeterSpacing&quot;:0};treeFolding=1;treeMoving=1;" vertex="1" parent="1">
          <mxGeometry x="340" y="270" width="100" height="40" as="geometry" />
        </mxCell>
        <mxCell id="n_tnNFl8hgzOfr8jNIPU-8" style="edgeStyle=entityRelationEdgeStyle;rounded=0;orthogonalLoop=1;jettySize=auto;html=1;startArrow=none;endArrow=none;segment=10;curved=1;sourcePerimeterSpacing=0;targetPerimeterSpacing=0;entryX=0;entryY=0.5;entryDx=0;entryDy=0;" edge="1" parent="1" source="n_tnNFl8hgzOfr8jNIPU-5" target="n_tnNFl8hgzOfr8jNIPU-6">
          <mxGeometry relative="1" as="geometry" />
        </mxCell>
        <mxCell id="n_tnNFl8hgzOfr8jNIPU-13" style="edgeStyle=entityRelationEdgeStyle;rounded=0;orthogonalLoop=1;jettySize=auto;html=1;startArrow=none;endArrow=none;segment=10;curved=1;sourcePerimeterSpacing=0;targetPerimeterSpacing=0;entryX=0;entryY=0.5;entryDx=0;entryDy=0;" edge="1" parent="1" source="n_tnNFl8hgzOfr8jNIPU-5" target="n_tnNFl8hgzOfr8jNIPU-10">
          <mxGeometry relative="1" as="geometry" />
        </mxCell>
        <mxCell id="n_tnNFl8hgzOfr8jNIPU-16" style="edgeStyle=entityRelationEdgeStyle;rounded=0;orthogonalLoop=1;jettySize=auto;html=1;startArrow=none;endArrow=none;segment=10;curved=1;sourcePerimeterSpacing=0;targetPerimeterSpacing=0;entryX=0;entryY=0.5;entryDx=0;entryDy=0;" edge="1" parent="1" source="n_tnNFl8hgzOfr8jNIPU-5" target="n_tnNFl8hgzOfr8jNIPU-14">
          <mxGeometry relative="1" as="geometry" />
        </mxCell>
        <mxCell id="n_tnNFl8hgzOfr8jNIPU-19" style="edgeStyle=entityRelationEdgeStyle;rounded=0;orthogonalLoop=1;jettySize=auto;html=1;startArrow=none;endArrow=none;segment=10;curved=1;sourcePerimeterSpacing=0;targetPerimeterSpacing=0;" edge="1" parent="1" source="n_tnNFl8hgzOfr8jNIPU-5" target="n_tnNFl8hgzOfr8jNIPU-17">
          <mxGeometry relative="1" as="geometry" />
        </mxCell>
        <mxCell id="n_tnNFl8hgzOfr8jNIPU-49" style="edgeStyle=entityRelationEdgeStyle;rounded=0;orthogonalLoop=1;jettySize=auto;html=1;startArrow=none;endArrow=none;segment=10;curved=1;sourcePerimeterSpacing=0;targetPerimeterSpacing=0;entryX=0;entryY=0.5;entryDx=0;entryDy=0;" edge="1" parent="1" source="n_tnNFl8hgzOfr8jNIPU-5" target="n_tnNFl8hgzOfr8jNIPU-46">
          <mxGeometry relative="1" as="geometry" />
        </mxCell>
        <mxCell id="n_tnNFl8hgzOfr8jNIPU-5" value="错题" style="ellipse;whiteSpace=wrap;html=1;align=center;newEdgeStyle={&quot;edgeStyle&quot;:&quot;entityRelationEdgeStyle&quot;,&quot;startArrow&quot;:&quot;none&quot;,&quot;endArrow&quot;:&quot;none&quot;,&quot;segment&quot;:10,&quot;curved&quot;:1,&quot;sourcePerimeterSpacing&quot;:0,&quot;targetPerimeterSpacing&quot;:0};treeFolding=1;treeMoving=1;" vertex="1" parent="1">
          <mxGeometry x="460" y="380" width="100" height="40" as="geometry" />
        </mxCell>
        <mxCell id="n_tnNFl8hgzOfr8jNIPU-6" value="图片" style="whiteSpace=wrap;html=1;rounded=1;arcSize=50;align=center;verticalAlign=middle;strokeWidth=1;autosize=1;spacing=4;treeFolding=1;treeMoving=1;newEdgeStyle={&quot;edgeStyle&quot;:&quot;entityRelationEdgeStyle&quot;,&quot;startArrow&quot;:&quot;none&quot;,&quot;endArrow&quot;:&quot;none&quot;,&quot;segment&quot;:10,&quot;curved&quot;:1,&quot;sourcePerimeterSpacing&quot;:0,&quot;targetPerimeterSpacing&quot;:0};" vertex="1" parent="1">
          <mxGeometry x="610" y="290" width="70" height="30" as="geometry" />
        </mxCell>
        <mxCell id="n_tnNFl8hgzOfr8jNIPU-10" value="题目" style="whiteSpace=wrap;html=1;rounded=1;arcSize=50;align=center;verticalAlign=middle;strokeWidth=1;autosize=1;spacing=4;treeFolding=1;treeMoving=1;newEdgeStyle={&quot;edgeStyle&quot;:&quot;entityRelationEdgeStyle&quot;,&quot;startArrow&quot;:&quot;none&quot;,&quot;endArrow&quot;:&quot;none&quot;,&quot;segment&quot;:10,&quot;curved&quot;:1,&quot;sourcePerimeterSpacing&quot;:0,&quot;targetPerimeterSpacing&quot;:0};" vertex="1" parent="1">
          <mxGeometry x="640" y="340" width="70" height="30" as="geometry" />
        </mxCell>
        <mxCell id="n_tnNFl8hgzOfr8jNIPU-14" value="训练次数" style="whiteSpace=wrap;html=1;rounded=1;arcSize=50;align=center;verticalAlign=middle;strokeWidth=1;autosize=1;spacing=4;treeFolding=1;treeMoving=1;newEdgeStyle={&quot;edgeStyle&quot;:&quot;entityRelationEdgeStyle&quot;,&quot;startArrow&quot;:&quot;none&quot;,&quot;endArrow&quot;:&quot;none&quot;,&quot;segment&quot;:10,&quot;curved&quot;:1,&quot;sourcePerimeterSpacing&quot;:0,&quot;targetPerimeterSpacing&quot;:0};" vertex="1" parent="1">
          <mxGeometry x="645" y="430" width="90" height="30" as="geometry" />
        </mxCell>
        <mxCell id="n_tnNFl8hgzOfr8jNIPU-17" value="熟练程度" style="whiteSpace=wrap;html=1;rounded=1;arcSize=50;align=center;verticalAlign=middle;strokeWidth=1;autosize=1;spacing=4;treeFolding=1;treeMoving=1;newEdgeStyle={&quot;edgeStyle&quot;:&quot;entityRelationEdgeStyle&quot;,&quot;startArrow&quot;:&quot;none&quot;,&quot;endArrow&quot;:&quot;none&quot;,&quot;segment&quot;:10,&quot;curved&quot;:1,&quot;sourcePerimeterSpacing&quot;:0,&quot;targetPerimeterSpacing&quot;:0};" vertex="1" parent="1">
          <mxGeometry x="610" y="480" width="90" height="30" as="geometry" />
        </mxCell>
        <mxCell id="n_tnNFl8hgzOfr8jNIPU-23" style="edgeStyle=entityRelationEdgeStyle;rounded=0;orthogonalLoop=1;jettySize=auto;html=1;startArrow=none;endArrow=none;segment=10;curved=1;sourcePerimeterSpacing=0;targetPerimeterSpacing=0;entryX=1;entryY=0.5;entryDx=0;entryDy=0;" edge="1" parent="1" source="n_tnNFl8hgzOfr8jNIPU-20" target="n_tnNFl8hgzOfr8jNIPU-21">
          <mxGeometry relative="1" as="geometry" />
        </mxCell>
        <mxCell id="n_tnNFl8hgzOfr8jNIPU-36" style="edgeStyle=entityRelationEdgeStyle;rounded=0;orthogonalLoop=1;jettySize=auto;html=1;startArrow=none;endArrow=none;segment=10;curved=1;sourcePerimeterSpacing=0;targetPerimeterSpacing=0;entryX=1;entryY=0.5;entryDx=0;entryDy=0;" edge="1" parent="1" source="n_tnNFl8hgzOfr8jNIPU-20" target="n_tnNFl8hgzOfr8jNIPU-34">
          <mxGeometry relative="1" as="geometry" />
        </mxCell>
        <mxCell id="n_tnNFl8hgzOfr8jNIPU-42" style="edgeStyle=entityRelationEdgeStyle;rounded=0;orthogonalLoop=1;jettySize=auto;html=1;startArrow=none;endArrow=none;segment=10;curved=1;sourcePerimeterSpacing=0;targetPerimeterSpacing=0;entryX=1;entryY=0.5;entryDx=0;entryDy=0;" edge="1" parent="1" source="n_tnNFl8hgzOfr8jNIPU-20" target="n_tnNFl8hgzOfr8jNIPU-40">
          <mxGeometry relative="1" as="geometry" />
        </mxCell>
        <mxCell id="n_tnNFl8hgzOfr8jNIPU-45" style="edgeStyle=entityRelationEdgeStyle;rounded=0;orthogonalLoop=1;jettySize=auto;html=1;startArrow=none;endArrow=none;segment=10;curved=1;sourcePerimeterSpacing=0;targetPerimeterSpacing=0;" edge="1" parent="1" source="n_tnNFl8hgzOfr8jNIPU-20" target="n_tnNFl8hgzOfr8jNIPU-43">
          <mxGeometry relative="1" as="geometry" />
        </mxCell>
        <mxCell id="n_tnNFl8hgzOfr8jNIPU-20" value="练习题" style="ellipse;whiteSpace=wrap;html=1;align=center;newEdgeStyle={&quot;edgeStyle&quot;:&quot;entityRelationEdgeStyle&quot;,&quot;startArrow&quot;:&quot;none&quot;,&quot;endArrow&quot;:&quot;none&quot;,&quot;segment&quot;:10,&quot;curved&quot;:1,&quot;sourcePerimeterSpacing&quot;:0,&quot;targetPerimeterSpacing&quot;:0};treeFolding=1;treeMoving=1;" vertex="1" parent="1">
          <mxGeometry x="210" y="380" width="100" height="40" as="geometry" />
        </mxCell>
        <mxCell id="n_tnNFl8hgzOfr8jNIPU-21" value="题目&lt;br&gt;" style="whiteSpace=wrap;html=1;rounded=1;arcSize=50;align=center;verticalAlign=middle;strokeWidth=1;autosize=1;spacing=4;treeFolding=1;treeMoving=1;newEdgeStyle={&quot;edgeStyle&quot;:&quot;entityRelationEdgeStyle&quot;,&quot;startArrow&quot;:&quot;none&quot;,&quot;endArrow&quot;:&quot;none&quot;,&quot;segment&quot;:10,&quot;curved&quot;:1,&quot;sourcePerimeterSpacing&quot;:0,&quot;targetPerimeterSpacing&quot;:0};" vertex="1" parent="1">
          <mxGeometry x="80" y="300" width="70" height="30" as="geometry" />
        </mxCell>
        <mxCell id="n_tnNFl8hgzOfr8jNIPU-34" value="用户输入" style="whiteSpace=wrap;html=1;rounded=1;arcSize=50;align=center;verticalAlign=middle;strokeWidth=1;autosize=1;spacing=4;treeFolding=1;treeMoving=1;newEdgeStyle={&quot;edgeStyle&quot;:&quot;entityRelationEdgeStyle&quot;,&quot;startArrow&quot;:&quot;none&quot;,&quot;endArrow&quot;:&quot;none&quot;,&quot;segment&quot;:10,&quot;curved&quot;:1,&quot;sourcePerimeterSpacing&quot;:0,&quot;targetPerimeterSpacing&quot;:0};" vertex="1" parent="1">
          <mxGeometry x="40" y="360" width="90" height="30" as="geometry" />
        </mxCell>
        <mxCell id="n_tnNFl8hgzOfr8jNIPU-40" value="结果" style="whiteSpace=wrap;html=1;rounded=1;arcSize=50;align=center;verticalAlign=middle;strokeWidth=1;autosize=1;spacing=4;treeFolding=1;treeMoving=1;newEdgeStyle={&quot;edgeStyle&quot;:&quot;entityRelationEdgeStyle&quot;,&quot;startArrow&quot;:&quot;none&quot;,&quot;endArrow&quot;:&quot;none&quot;,&quot;segment&quot;:10,&quot;curved&quot;:1,&quot;sourcePerimeterSpacing&quot;:0,&quot;targetPerimeterSpacing&quot;:0};" vertex="1" parent="1">
          <mxGeometry x="60" y="420" width="70" height="30" as="geometry" />
        </mxCell>
        <mxCell id="n_tnNFl8hgzOfr8jNIPU-43" value="关联错题" style="whiteSpace=wrap;html=1;rounded=1;arcSize=50;align=center;verticalAlign=middle;strokeWidth=1;autosize=1;spacing=4;treeFolding=1;treeMoving=1;newEdgeStyle={&quot;edgeStyle&quot;:&quot;entityRelationEdgeStyle&quot;,&quot;startArrow&quot;:&quot;none&quot;,&quot;endArrow&quot;:&quot;none&quot;,&quot;segment&quot;:10,&quot;curved&quot;:1,&quot;sourcePerimeterSpacing&quot;:0,&quot;targetPerimeterSpacing&quot;:0};" vertex="1" parent="1">
          <mxGeometry x="65" y="478" width="90" height="30" as="geometry" />
        </mxCell>
        <mxCell id="n_tnNFl8hgzOfr8jNIPU-46" value="创建时间" style="whiteSpace=wrap;html=1;rounded=1;arcSize=50;align=center;verticalAlign=middle;strokeWidth=1;autosize=1;spacing=4;treeFolding=1;treeMoving=1;newEdgeStyle={&quot;edgeStyle&quot;:&quot;entityRelationEdgeStyle&quot;,&quot;startArrow&quot;:&quot;none&quot;,&quot;endArrow&quot;:&quot;none&quot;,&quot;segment&quot;:10,&quot;curved&quot;:1,&quot;sourcePerimeterSpacing&quot;:0,&quot;targetPerimeterSpacing&quot;:0};" vertex="1" parent="1">
          <mxGeometry x="670" y="385" width="90" height="30" as="geometry" />
        </mxCell>
      </root>
    </mxGraphModel>
  </diagram>
  <diagram id="1zy0tcRsy9P7M1kEBpyo" name="Product Structure Diagram">
    <mxGraphModel dx="954" dy="606" grid="1" gridSize="10" guides="1" tooltips="1" connect="1" arrows="1" fold="1" page="1" pageScale="1" pageWidth="850" pageHeight="1100" math="0" shadow="0">
      <root>
        <mxCell id="0" />
        <mxCell id="1" parent="0" />
        <mxCell id="cICh9EJMZ9ynwOE7OCYy-3" style="edgeStyle=entityRelationEdgeStyle;rounded=0;orthogonalLoop=1;jettySize=auto;html=1;startArrow=none;endArrow=none;segment=10;curved=1;sourcePerimeterSpacing=0;targetPerimeterSpacing=0;" edge="1" parent="1" source="cICh9EJMZ9ynwOE7OCYy-1" target="cICh9EJMZ9ynwOE7OCYy-2">
          <mxGeometry relative="1" as="geometry" />
        </mxCell>
        <mxCell id="kSYMdr_3ROGAJpMilexQ-33" style="edgeStyle=entityRelationEdgeStyle;rounded=0;orthogonalLoop=1;jettySize=auto;html=1;startArrow=none;endArrow=none;segment=10;curved=1;sourcePerimeterSpacing=0;targetPerimeterSpacing=0;entryX=0;entryY=0.5;entryDx=0;entryDy=0;" edge="1" parent="1" source="cICh9EJMZ9ynwOE7OCYy-1" target="kSYMdr_3ROGAJpMilexQ-32">
          <mxGeometry relative="1" as="geometry" />
        </mxCell>
        <mxCell id="BI8iLUj6IKuQwwcAN_BR-27" style="edgeStyle=entityRelationEdgeStyle;rounded=0;orthogonalLoop=1;jettySize=auto;html=1;startArrow=none;endArrow=none;segment=10;curved=1;sourcePerimeterSpacing=0;targetPerimeterSpacing=0;entryX=0;entryY=0.5;entryDx=0;entryDy=0;" edge="1" parent="1" source="cICh9EJMZ9ynwOE7OCYy-1" target="BI8iLUj6IKuQwwcAN_BR-26">
          <mxGeometry relative="1" as="geometry" />
        </mxCell>
        <mxCell id="cICh9EJMZ9ynwOE7OCYy-1" value="错题本" style="ellipse;whiteSpace=wrap;html=1;align=center;newEdgeStyle={&quot;edgeStyle&quot;:&quot;entityRelationEdgeStyle&quot;,&quot;startArrow&quot;:&quot;none&quot;,&quot;endArrow&quot;:&quot;none&quot;,&quot;segment&quot;:10,&quot;curved&quot;:1,&quot;sourcePerimeterSpacing&quot;:0,&quot;targetPerimeterSpacing&quot;:0};treeFolding=1;treeMoving=1;" vertex="1" parent="1">
          <mxGeometry y="570" width="100" height="40" as="geometry" />
        </mxCell>
        <mxCell id="cICh9EJMZ9ynwOE7OCYy-6" style="edgeStyle=entityRelationEdgeStyle;rounded=0;orthogonalLoop=1;jettySize=auto;html=1;startArrow=none;endArrow=none;segment=10;curved=1;sourcePerimeterSpacing=0;targetPerimeterSpacing=0;entryX=0;entryY=0.5;entryDx=0;entryDy=0;" edge="1" parent="1" source="cICh9EJMZ9ynwOE7OCYy-2">
          <mxGeometry relative="1" as="geometry">
            <mxPoint x="260" y="195" as="targetPoint" />
          </mxGeometry>
        </mxCell>
        <mxCell id="cICh9EJMZ9ynwOE7OCYy-10" style="edgeStyle=entityRelationEdgeStyle;rounded=0;orthogonalLoop=1;jettySize=auto;html=1;startArrow=none;endArrow=none;segment=10;curved=1;sourcePerimeterSpacing=0;targetPerimeterSpacing=0;" edge="1" parent="1" source="cICh9EJMZ9ynwOE7OCYy-2">
          <mxGeometry relative="1" as="geometry">
            <mxPoint x="260" y="405" as="targetPoint" />
          </mxGeometry>
        </mxCell>
        <mxCell id="cICh9EJMZ9ynwOE7OCYy-2" value="首页" style="ellipse;whiteSpace=wrap;html=1;align=center;newEdgeStyle={&quot;edgeStyle&quot;:&quot;entityRelationEdgeStyle&quot;,&quot;startArrow&quot;:&quot;none&quot;,&quot;endArrow&quot;:&quot;none&quot;,&quot;segment&quot;:10,&quot;curved&quot;:1,&quot;sourcePerimeterSpacing&quot;:0,&quot;targetPerimeterSpacing&quot;:0};treeFolding=1;treeMoving=1;" vertex="1" parent="1">
          <mxGeometry x="130" y="280" width="100" height="40" as="geometry" />
        </mxCell>
        <mxCell id="BI8iLUj6IKuQwwcAN_BR-2" value="" style="edgeStyle=entityRelationEdgeStyle;rounded=0;orthogonalLoop=1;jettySize=auto;html=1;startArrow=none;endArrow=none;segment=10;curved=1;sourcePerimeterSpacing=0;targetPerimeterSpacing=0;" edge="1" parent="1" source="st1JMAznDpDhFJXI8PSG-4" target="BI8iLUj6IKuQwwcAN_BR-1">
          <mxGeometry relative="1" as="geometry" />
        </mxCell>
        <mxCell id="BI8iLUj6IKuQwwcAN_BR-3" value="" style="edgeStyle=entityRelationEdgeStyle;rounded=0;orthogonalLoop=1;jettySize=auto;html=1;startArrow=none;endArrow=none;segment=10;curved=1;sourcePerimeterSpacing=0;targetPerimeterSpacing=0;" edge="1" parent="1" source="st1JMAznDpDhFJXI8PSG-4" target="BI8iLUj6IKuQwwcAN_BR-1">
          <mxGeometry relative="1" as="geometry" />
        </mxCell>
        <mxCell id="BI8iLUj6IKuQwwcAN_BR-5" style="edgeStyle=entityRelationEdgeStyle;rounded=0;orthogonalLoop=1;jettySize=auto;html=1;startArrow=none;endArrow=none;segment=10;curved=1;sourcePerimeterSpacing=0;targetPerimeterSpacing=0;entryX=0;entryY=0.5;entryDx=0;entryDy=0;" edge="1" parent="1" source="st1JMAznDpDhFJXI8PSG-4" target="BI8iLUj6IKuQwwcAN_BR-4">
          <mxGeometry relative="1" as="geometry" />
        </mxCell>
        <mxCell id="BI8iLUj6IKuQwwcAN_BR-10" style="edgeStyle=entityRelationEdgeStyle;rounded=0;orthogonalLoop=1;jettySize=auto;html=1;startArrow=none;endArrow=none;segment=10;curved=1;sourcePerimeterSpacing=0;targetPerimeterSpacing=0;entryX=0;entryY=0.5;entryDx=0;entryDy=0;" edge="1" parent="1" source="st1JMAznDpDhFJXI8PSG-4" target="kSYMdr_3ROGAJpMilexQ-16">
          <mxGeometry relative="1" as="geometry" />
        </mxCell>
        <mxCell id="9LDfvEQCezsJGFnNgExV-6" style="edgeStyle=entityRelationEdgeStyle;rounded=0;orthogonalLoop=1;jettySize=auto;html=1;startArrow=none;endArrow=none;segment=10;curved=1;sourcePerimeterSpacing=0;targetPerimeterSpacing=0;entryX=0;entryY=0.5;entryDx=0;entryDy=0;" edge="1" parent="1" source="st1JMAznDpDhFJXI8PSG-4" target="9LDfvEQCezsJGFnNgExV-2">
          <mxGeometry relative="1" as="geometry" />
        </mxCell>
        <mxCell id="st1JMAznDpDhFJXI8PSG-4" value="错题库" style="whiteSpace=wrap;html=1;rounded=1;arcSize=50;align=center;verticalAlign=middle;strokeWidth=1;autosize=1;spacing=4;treeFolding=1;treeMoving=1;newEdgeStyle={&quot;edgeStyle&quot;:&quot;entityRelationEdgeStyle&quot;,&quot;startArrow&quot;:&quot;none&quot;,&quot;endArrow&quot;:&quot;none&quot;,&quot;segment&quot;:10,&quot;curved&quot;:1,&quot;sourcePerimeterSpacing&quot;:0,&quot;targetPerimeterSpacing&quot;:0};" vertex="1" parent="1">
          <mxGeometry x="260" y="180" width="80" height="30" as="geometry" />
        </mxCell>
        <mxCell id="kSYMdr_3ROGAJpMilexQ-5" style="edgeStyle=entityRelationEdgeStyle;rounded=0;orthogonalLoop=1;jettySize=auto;html=1;startArrow=none;endArrow=none;segment=10;curved=1;sourcePerimeterSpacing=0;targetPerimeterSpacing=0;entryX=0;entryY=0.5;entryDx=0;entryDy=0;" edge="1" parent="1" source="st1JMAznDpDhFJXI8PSG-7" target="kSYMdr_3ROGAJpMilexQ-2">
          <mxGeometry relative="1" as="geometry" />
        </mxCell>
        <mxCell id="kSYMdr_3ROGAJpMilexQ-6" style="edgeStyle=entityRelationEdgeStyle;rounded=0;orthogonalLoop=1;jettySize=auto;html=1;startArrow=none;endArrow=none;segment=10;curved=1;sourcePerimeterSpacing=0;targetPerimeterSpacing=0;entryX=0;entryY=0.5;entryDx=0;entryDy=0;" edge="1" parent="1" source="st1JMAznDpDhFJXI8PSG-7" target="kSYMdr_3ROGAJpMilexQ-4">
          <mxGeometry relative="1" as="geometry" />
        </mxCell>
        <mxCell id="kSYMdr_3ROGAJpMilexQ-9" style="edgeStyle=entityRelationEdgeStyle;rounded=0;orthogonalLoop=1;jettySize=auto;html=1;startArrow=none;endArrow=none;segment=10;curved=1;sourcePerimeterSpacing=0;targetPerimeterSpacing=0;entryX=0;entryY=0.5;entryDx=0;entryDy=0;" edge="1" parent="1" source="st1JMAznDpDhFJXI8PSG-7" target="kSYMdr_3ROGAJpMilexQ-7">
          <mxGeometry relative="1" as="geometry" />
        </mxCell>
        <mxCell id="st1JMAznDpDhFJXI8PSG-7" value="拍照" style="whiteSpace=wrap;html=1;rounded=1;arcSize=50;align=center;verticalAlign=middle;strokeWidth=1;autosize=1;spacing=4;treeFolding=1;treeMoving=1;newEdgeStyle={&quot;edgeStyle&quot;:&quot;entityRelationEdgeStyle&quot;,&quot;startArrow&quot;:&quot;none&quot;,&quot;endArrow&quot;:&quot;none&quot;,&quot;segment&quot;:10,&quot;curved&quot;:1,&quot;sourcePerimeterSpacing&quot;:0,&quot;targetPerimeterSpacing&quot;:0};" vertex="1" parent="1">
          <mxGeometry x="260" y="390" width="70" height="30" as="geometry" />
        </mxCell>
        <mxCell id="kSYMdr_3ROGAJpMilexQ-2" value="重新拍照" style="whiteSpace=wrap;html=1;rounded=1;arcSize=50;align=center;verticalAlign=middle;strokeWidth=1;autosize=1;spacing=4;treeFolding=1;treeMoving=1;newEdgeStyle={&quot;edgeStyle&quot;:&quot;entityRelationEdgeStyle&quot;,&quot;startArrow&quot;:&quot;none&quot;,&quot;endArrow&quot;:&quot;none&quot;,&quot;segment&quot;:10,&quot;curved&quot;:1,&quot;sourcePerimeterSpacing&quot;:0,&quot;targetPerimeterSpacing&quot;:0};" vertex="1" parent="1">
          <mxGeometry x="400" y="350" width="90" height="30" as="geometry" />
        </mxCell>
        <mxCell id="kSYMdr_3ROGAJpMilexQ-4" value="范围选取" style="whiteSpace=wrap;html=1;rounded=1;arcSize=50;align=center;verticalAlign=middle;strokeWidth=1;autosize=1;spacing=4;treeFolding=1;treeMoving=1;newEdgeStyle={&quot;edgeStyle&quot;:&quot;entityRelationEdgeStyle&quot;,&quot;startArrow&quot;:&quot;none&quot;,&quot;endArrow&quot;:&quot;none&quot;,&quot;segment&quot;:10,&quot;curved&quot;:1,&quot;sourcePerimeterSpacing&quot;:0,&quot;targetPerimeterSpacing&quot;:0};" vertex="1" parent="1">
          <mxGeometry x="420" y="390" width="90" height="30" as="geometry" />
        </mxCell>
        <mxCell id="kSYMdr_3ROGAJpMilexQ-14" style="edgeStyle=entityRelationEdgeStyle;rounded=0;orthogonalLoop=1;jettySize=auto;html=1;startArrow=none;endArrow=none;segment=10;curved=1;sourcePerimeterSpacing=0;targetPerimeterSpacing=0;entryX=0;entryY=0.5;entryDx=0;entryDy=0;" edge="1" parent="1" source="kSYMdr_3ROGAJpMilexQ-7" target="kSYMdr_3ROGAJpMilexQ-10">
          <mxGeometry relative="1" as="geometry" />
        </mxCell>
        <mxCell id="kSYMdr_3ROGAJpMilexQ-15" style="edgeStyle=entityRelationEdgeStyle;rounded=0;orthogonalLoop=1;jettySize=auto;html=1;startArrow=none;endArrow=none;segment=10;curved=1;sourcePerimeterSpacing=0;targetPerimeterSpacing=0;entryX=0;entryY=0.5;entryDx=0;entryDy=0;" edge="1" parent="1" source="kSYMdr_3ROGAJpMilexQ-7" target="kSYMdr_3ROGAJpMilexQ-12">
          <mxGeometry relative="1" as="geometry" />
        </mxCell>
        <mxCell id="kSYMdr_3ROGAJpMilexQ-7" value="确定" style="whiteSpace=wrap;html=1;rounded=1;arcSize=50;align=center;verticalAlign=middle;strokeWidth=1;autosize=1;spacing=4;treeFolding=1;treeMoving=1;newEdgeStyle={&quot;edgeStyle&quot;:&quot;entityRelationEdgeStyle&quot;,&quot;startArrow&quot;:&quot;none&quot;,&quot;endArrow&quot;:&quot;none&quot;,&quot;segment&quot;:10,&quot;curved&quot;:1,&quot;sourcePerimeterSpacing&quot;:0,&quot;targetPerimeterSpacing&quot;:0};" vertex="1" parent="1">
          <mxGeometry x="400" y="430" width="70" height="30" as="geometry" />
        </mxCell>
        <mxCell id="kSYMdr_3ROGAJpMilexQ-10" value="题目编辑" style="whiteSpace=wrap;html=1;rounded=1;arcSize=50;align=center;verticalAlign=middle;strokeWidth=1;autosize=1;spacing=4;treeFolding=1;treeMoving=1;newEdgeStyle={&quot;edgeStyle&quot;:&quot;entityRelationEdgeStyle&quot;,&quot;startArrow&quot;:&quot;none&quot;,&quot;endArrow&quot;:&quot;none&quot;,&quot;segment&quot;:10,&quot;curved&quot;:1,&quot;sourcePerimeterSpacing&quot;:0,&quot;targetPerimeterSpacing&quot;:0};" vertex="1" parent="1">
          <mxGeometry x="540" y="400" width="90" height="30" as="geometry" />
        </mxCell>
        <mxCell id="kSYMdr_3ROGAJpMilexQ-30" style="edgeStyle=entityRelationEdgeStyle;rounded=0;orthogonalLoop=1;jettySize=auto;html=1;startArrow=none;endArrow=none;segment=10;curved=1;sourcePerimeterSpacing=0;targetPerimeterSpacing=0;entryX=0;entryY=0.5;entryDx=0;entryDy=0;" edge="1" parent="1" source="kSYMdr_3ROGAJpMilexQ-12" target="kSYMdr_3ROGAJpMilexQ-27">
          <mxGeometry relative="1" as="geometry" />
        </mxCell>
        <mxCell id="kSYMdr_3ROGAJpMilexQ-12" value="保存" style="whiteSpace=wrap;html=1;rounded=1;arcSize=50;align=center;verticalAlign=middle;strokeWidth=1;autosize=1;spacing=4;treeFolding=1;treeMoving=1;newEdgeStyle={&quot;edgeStyle&quot;:&quot;entityRelationEdgeStyle&quot;,&quot;startArrow&quot;:&quot;none&quot;,&quot;endArrow&quot;:&quot;none&quot;,&quot;segment&quot;:10,&quot;curved&quot;:1,&quot;sourcePerimeterSpacing&quot;:0,&quot;targetPerimeterSpacing&quot;:0};" vertex="1" parent="1">
          <mxGeometry x="540" y="450" width="70" height="30" as="geometry" />
        </mxCell>
        <mxCell id="kSYMdr_3ROGAJpMilexQ-29" style="edgeStyle=entityRelationEdgeStyle;rounded=0;orthogonalLoop=1;jettySize=auto;html=1;startArrow=none;endArrow=none;segment=10;curved=1;sourcePerimeterSpacing=0;targetPerimeterSpacing=0;entryX=0;entryY=0.5;entryDx=0;entryDy=0;" edge="1" parent="1" source="kSYMdr_3ROGAJpMilexQ-16" target="kSYMdr_3ROGAJpMilexQ-28">
          <mxGeometry relative="1" as="geometry" />
        </mxCell>
        <mxCell id="kSYMdr_3ROGAJpMilexQ-16" value="查看某个错题详情" style="whiteSpace=wrap;html=1;rounded=1;arcSize=50;align=center;verticalAlign=middle;strokeWidth=1;autosize=1;spacing=4;treeFolding=1;treeMoving=1;newEdgeStyle={&quot;edgeStyle&quot;:&quot;entityRelationEdgeStyle&quot;,&quot;startArrow&quot;:&quot;none&quot;,&quot;endArrow&quot;:&quot;none&quot;,&quot;segment&quot;:10,&quot;curved&quot;:1,&quot;sourcePerimeterSpacing&quot;:0,&quot;targetPerimeterSpacing&quot;:0};" vertex="1" parent="1">
          <mxGeometry x="400" y="150" width="140" height="30" as="geometry" />
        </mxCell>
        <mxCell id="kSYMdr_3ROGAJpMilexQ-27" value="错题详情页" style="whiteSpace=wrap;html=1;rounded=1;arcSize=50;align=center;verticalAlign=middle;strokeWidth=1;autosize=1;spacing=4;treeFolding=1;treeMoving=1;newEdgeStyle={&quot;edgeStyle&quot;:&quot;entityRelationEdgeStyle&quot;,&quot;startArrow&quot;:&quot;none&quot;,&quot;endArrow&quot;:&quot;none&quot;,&quot;segment&quot;:10,&quot;curved&quot;:1,&quot;sourcePerimeterSpacing&quot;:0,&quot;targetPerimeterSpacing&quot;:0};" vertex="1" parent="1">
          <mxGeometry x="650" y="450" width="100" height="30" as="geometry" />
        </mxCell>
        <mxCell id="kSYMdr_3ROGAJpMilexQ-28" value="错题详情页" style="whiteSpace=wrap;html=1;rounded=1;arcSize=50;align=center;verticalAlign=middle;strokeWidth=1;autosize=1;spacing=4;treeFolding=1;treeMoving=1;newEdgeStyle={&quot;edgeStyle&quot;:&quot;entityRelationEdgeStyle&quot;,&quot;startArrow&quot;:&quot;none&quot;,&quot;endArrow&quot;:&quot;none&quot;,&quot;segment&quot;:10,&quot;curved&quot;:1,&quot;sourcePerimeterSpacing&quot;:0,&quot;targetPerimeterSpacing&quot;:0};" vertex="1" parent="1">
          <mxGeometry x="580" y="150" width="100" height="30" as="geometry" />
        </mxCell>
        <mxCell id="kSYMdr_3ROGAJpMilexQ-43" style="edgeStyle=entityRelationEdgeStyle;rounded=0;orthogonalLoop=1;jettySize=auto;html=1;startArrow=none;endArrow=none;segment=10;curved=1;sourcePerimeterSpacing=0;targetPerimeterSpacing=0;entryX=0;entryY=0.5;entryDx=0;entryDy=0;" edge="1" parent="1" source="kSYMdr_3ROGAJpMilexQ-32" target="kSYMdr_3ROGAJpMilexQ-36">
          <mxGeometry relative="1" as="geometry" />
        </mxCell>
        <mxCell id="kSYMdr_3ROGAJpMilexQ-44" style="edgeStyle=entityRelationEdgeStyle;rounded=0;orthogonalLoop=1;jettySize=auto;html=1;startArrow=none;endArrow=none;segment=10;curved=1;sourcePerimeterSpacing=0;targetPerimeterSpacing=0;entryX=0;entryY=0.5;entryDx=0;entryDy=0;" edge="1" parent="1" source="kSYMdr_3ROGAJpMilexQ-32" target="kSYMdr_3ROGAJpMilexQ-40">
          <mxGeometry relative="1" as="geometry" />
        </mxCell>
        <mxCell id="kSYMdr_3ROGAJpMilexQ-45" style="edgeStyle=entityRelationEdgeStyle;rounded=0;orthogonalLoop=1;jettySize=auto;html=1;startArrow=none;endArrow=none;segment=10;curved=1;sourcePerimeterSpacing=0;targetPerimeterSpacing=0;entryX=0;entryY=0.5;entryDx=0;entryDy=0;" edge="1" parent="1" source="kSYMdr_3ROGAJpMilexQ-32" target="kSYMdr_3ROGAJpMilexQ-38">
          <mxGeometry relative="1" as="geometry" />
        </mxCell>
        <mxCell id="kSYMdr_3ROGAJpMilexQ-46" style="edgeStyle=entityRelationEdgeStyle;rounded=0;orthogonalLoop=1;jettySize=auto;html=1;startArrow=none;endArrow=none;segment=10;curved=1;sourcePerimeterSpacing=0;targetPerimeterSpacing=0;entryX=0;entryY=0.5;entryDx=0;entryDy=0;" edge="1" parent="1" source="kSYMdr_3ROGAJpMilexQ-32" target="kSYMdr_3ROGAJpMilexQ-39">
          <mxGeometry relative="1" as="geometry" />
        </mxCell>
        <mxCell id="kSYMdr_3ROGAJpMilexQ-49" style="edgeStyle=entityRelationEdgeStyle;rounded=0;orthogonalLoop=1;jettySize=auto;html=1;startArrow=none;endArrow=none;segment=10;curved=1;sourcePerimeterSpacing=0;targetPerimeterSpacing=0;entryX=0;entryY=0.5;entryDx=0;entryDy=0;" edge="1" parent="1" source="kSYMdr_3ROGAJpMilexQ-32" target="kSYMdr_3ROGAJpMilexQ-47">
          <mxGeometry relative="1" as="geometry" />
        </mxCell>
        <mxCell id="BI8iLUj6IKuQwwcAN_BR-19" style="edgeStyle=entityRelationEdgeStyle;rounded=0;orthogonalLoop=1;jettySize=auto;html=1;startArrow=none;endArrow=none;segment=10;curved=1;sourcePerimeterSpacing=0;targetPerimeterSpacing=0;entryX=0;entryY=0.5;entryDx=0;entryDy=0;" edge="1" parent="1" source="kSYMdr_3ROGAJpMilexQ-32" target="BI8iLUj6IKuQwwcAN_BR-18">
          <mxGeometry relative="1" as="geometry" />
        </mxCell>
        <mxCell id="BI8iLUj6IKuQwwcAN_BR-25" style="edgeStyle=entityRelationEdgeStyle;rounded=0;orthogonalLoop=1;jettySize=auto;html=1;startArrow=none;endArrow=none;segment=10;curved=1;sourcePerimeterSpacing=0;targetPerimeterSpacing=0;entryX=0;entryY=0.5;entryDx=0;entryDy=0;" edge="1" parent="1" source="kSYMdr_3ROGAJpMilexQ-32" target="BI8iLUj6IKuQwwcAN_BR-23">
          <mxGeometry relative="1" as="geometry" />
        </mxCell>
        <mxCell id="kSYMdr_3ROGAJpMilexQ-32" value="错题详情页" style="ellipse;whiteSpace=wrap;html=1;align=center;newEdgeStyle={&quot;edgeStyle&quot;:&quot;entityRelationEdgeStyle&quot;,&quot;startArrow&quot;:&quot;none&quot;,&quot;endArrow&quot;:&quot;none&quot;,&quot;segment&quot;:10,&quot;curved&quot;:1,&quot;sourcePerimeterSpacing&quot;:0,&quot;targetPerimeterSpacing&quot;:0};treeFolding=1;treeMoving=1;" vertex="1" parent="1">
          <mxGeometry x="150" y="570" width="100" height="40" as="geometry" />
        </mxCell>
        <mxCell id="kSYMdr_3ROGAJpMilexQ-36" value="原图片" style="whiteSpace=wrap;html=1;rounded=1;arcSize=50;align=center;verticalAlign=middle;strokeWidth=1;autosize=1;spacing=4;treeFolding=1;treeMoving=1;newEdgeStyle={&quot;edgeStyle&quot;:&quot;entityRelationEdgeStyle&quot;,&quot;startArrow&quot;:&quot;none&quot;,&quot;endArrow&quot;:&quot;none&quot;,&quot;segment&quot;:10,&quot;curved&quot;:1,&quot;sourcePerimeterSpacing&quot;:0,&quot;targetPerimeterSpacing&quot;:0};" vertex="1" parent="1">
          <mxGeometry x="310" y="490" width="80" height="30" as="geometry" />
        </mxCell>
        <mxCell id="kSYMdr_3ROGAJpMilexQ-38" value="题目" style="whiteSpace=wrap;html=1;rounded=1;arcSize=50;align=center;verticalAlign=middle;strokeWidth=1;autosize=1;spacing=4;treeFolding=1;treeMoving=1;newEdgeStyle={&quot;edgeStyle&quot;:&quot;entityRelationEdgeStyle&quot;,&quot;startArrow&quot;:&quot;none&quot;,&quot;endArrow&quot;:&quot;none&quot;,&quot;segment&quot;:10,&quot;curved&quot;:1,&quot;sourcePerimeterSpacing&quot;:0,&quot;targetPerimeterSpacing&quot;:0};" vertex="1" parent="1">
          <mxGeometry x="330" y="530" width="70" height="30" as="geometry" />
        </mxCell>
        <mxCell id="kSYMdr_3ROGAJpMilexQ-39" value="训练次数" style="whiteSpace=wrap;html=1;rounded=1;arcSize=50;align=center;verticalAlign=middle;strokeWidth=1;autosize=1;spacing=4;treeFolding=1;treeMoving=1;newEdgeStyle={&quot;edgeStyle&quot;:&quot;entityRelationEdgeStyle&quot;,&quot;startArrow&quot;:&quot;none&quot;,&quot;endArrow&quot;:&quot;none&quot;,&quot;segment&quot;:10,&quot;curved&quot;:1,&quot;sourcePerimeterSpacing&quot;:0,&quot;targetPerimeterSpacing&quot;:0};" vertex="1" parent="1">
          <mxGeometry x="330" y="575" width="90" height="30" as="geometry" />
        </mxCell>
        <mxCell id="kSYMdr_3ROGAJpMilexQ-40" value="掌握程度" style="whiteSpace=wrap;html=1;rounded=1;arcSize=50;align=center;verticalAlign=middle;strokeWidth=1;autosize=1;spacing=4;treeFolding=1;treeMoving=1;newEdgeStyle={&quot;edgeStyle&quot;:&quot;entityRelationEdgeStyle&quot;,&quot;startArrow&quot;:&quot;none&quot;,&quot;endArrow&quot;:&quot;none&quot;,&quot;segment&quot;:10,&quot;curved&quot;:1,&quot;sourcePerimeterSpacing&quot;:0,&quot;targetPerimeterSpacing&quot;:0};" vertex="1" parent="1">
          <mxGeometry x="330" y="630" width="90" height="30" as="geometry" />
        </mxCell>
        <mxCell id="kSYMdr_3ROGAJpMilexQ-47" value="返回首页" style="whiteSpace=wrap;html=1;rounded=1;arcSize=50;align=center;verticalAlign=middle;strokeWidth=1;autosize=1;spacing=4;treeFolding=1;treeMoving=1;newEdgeStyle={&quot;edgeStyle&quot;:&quot;entityRelationEdgeStyle&quot;,&quot;startArrow&quot;:&quot;none&quot;,&quot;endArrow&quot;:&quot;none&quot;,&quot;segment&quot;:10,&quot;curved&quot;:1,&quot;sourcePerimeterSpacing&quot;:0,&quot;targetPerimeterSpacing&quot;:0};" vertex="1" parent="1">
          <mxGeometry x="285" y="720" width="90" height="30" as="geometry" />
        </mxCell>
        <mxCell id="BI8iLUj6IKuQwwcAN_BR-1" value="所有错题表展示" style="whiteSpace=wrap;html=1;rounded=1;arcSize=50;align=center;verticalAlign=middle;strokeWidth=1;autosize=1;spacing=4;treeFolding=1;treeMoving=1;newEdgeStyle={&quot;edgeStyle&quot;:&quot;entityRelationEdgeStyle&quot;,&quot;startArrow&quot;:&quot;none&quot;,&quot;endArrow&quot;:&quot;none&quot;,&quot;segment&quot;:10,&quot;curved&quot;:1,&quot;sourcePerimeterSpacing&quot;:0,&quot;targetPerimeterSpacing&quot;:0};" vertex="1" parent="1">
          <mxGeometry x="380" y="90" width="130" height="30" as="geometry" />
        </mxCell>
        <mxCell id="9LDfvEQCezsJGFnNgExV-7" style="edgeStyle=entityRelationEdgeStyle;rounded=0;orthogonalLoop=1;jettySize=auto;html=1;startArrow=none;endArrow=none;segment=10;curved=1;sourcePerimeterSpacing=0;targetPerimeterSpacing=0;entryX=0;entryY=0.5;entryDx=0;entryDy=0;" edge="1" parent="1" source="BI8iLUj6IKuQwwcAN_BR-4" target="BI8iLUj6IKuQwwcAN_BR-6">
          <mxGeometry relative="1" as="geometry" />
        </mxCell>
        <mxCell id="BI8iLUj6IKuQwwcAN_BR-4" value="可勾选多个错题" style="whiteSpace=wrap;html=1;rounded=1;arcSize=50;align=center;verticalAlign=middle;strokeWidth=1;autosize=1;spacing=4;treeFolding=1;treeMoving=1;newEdgeStyle={&quot;edgeStyle&quot;:&quot;entityRelationEdgeStyle&quot;,&quot;startArrow&quot;:&quot;none&quot;,&quot;endArrow&quot;:&quot;none&quot;,&quot;segment&quot;:10,&quot;curved&quot;:1,&quot;sourcePerimeterSpacing&quot;:0,&quot;targetPerimeterSpacing&quot;:0};" vertex="1" parent="1">
          <mxGeometry x="400" y="220" width="130" height="30" as="geometry" />
        </mxCell>
        <mxCell id="BI8iLUj6IKuQwwcAN_BR-17" style="edgeStyle=entityRelationEdgeStyle;rounded=0;orthogonalLoop=1;jettySize=auto;html=1;startArrow=none;endArrow=none;segment=10;curved=1;sourcePerimeterSpacing=0;targetPerimeterSpacing=0;entryX=0;entryY=0.5;entryDx=0;entryDy=0;" edge="1" parent="1" source="BI8iLUj6IKuQwwcAN_BR-6" target="BI8iLUj6IKuQwwcAN_BR-16">
          <mxGeometry relative="1" as="geometry" />
        </mxCell>
        <mxCell id="BI8iLUj6IKuQwwcAN_BR-6" value="开始练习" style="whiteSpace=wrap;html=1;rounded=1;arcSize=50;align=center;verticalAlign=middle;strokeWidth=1;autosize=1;spacing=4;treeFolding=1;treeMoving=1;newEdgeStyle={&quot;edgeStyle&quot;:&quot;entityRelationEdgeStyle&quot;,&quot;startArrow&quot;:&quot;none&quot;,&quot;endArrow&quot;:&quot;none&quot;,&quot;segment&quot;:10,&quot;curved&quot;:1,&quot;sourcePerimeterSpacing&quot;:0,&quot;targetPerimeterSpacing&quot;:0};" vertex="1" parent="1">
          <mxGeometry x="560" y="220" width="90" height="30" as="geometry" />
        </mxCell>
        <mxCell id="BI8iLUj6IKuQwwcAN_BR-16" value="练习界面" style="whiteSpace=wrap;html=1;rounded=1;arcSize=50;align=center;verticalAlign=middle;strokeWidth=1;autosize=1;spacing=4;treeFolding=1;treeMoving=1;newEdgeStyle={&quot;edgeStyle&quot;:&quot;entityRelationEdgeStyle&quot;,&quot;startArrow&quot;:&quot;none&quot;,&quot;endArrow&quot;:&quot;none&quot;,&quot;segment&quot;:10,&quot;curved&quot;:1,&quot;sourcePerimeterSpacing&quot;:0,&quot;targetPerimeterSpacing&quot;:0};" vertex="1" parent="1">
          <mxGeometry x="690" y="220" width="90" height="30" as="geometry" />
        </mxCell>
        <mxCell id="BI8iLUj6IKuQwwcAN_BR-22" value="" style="edgeStyle=entityRelationEdgeStyle;rounded=0;orthogonalLoop=1;jettySize=auto;html=1;startArrow=none;endArrow=none;segment=10;curved=1;sourcePerimeterSpacing=0;targetPerimeterSpacing=0;" edge="1" parent="1" source="BI8iLUj6IKuQwwcAN_BR-18" target="BI8iLUj6IKuQwwcAN_BR-21">
          <mxGeometry relative="1" as="geometry" />
        </mxCell>
        <mxCell id="BI8iLUj6IKuQwwcAN_BR-18" value="开始练习" style="whiteSpace=wrap;html=1;rounded=1;arcSize=50;align=center;verticalAlign=middle;strokeWidth=1;autosize=1;spacing=4;treeFolding=1;treeMoving=1;newEdgeStyle={&quot;edgeStyle&quot;:&quot;entityRelationEdgeStyle&quot;,&quot;startArrow&quot;:&quot;none&quot;,&quot;endArrow&quot;:&quot;none&quot;,&quot;segment&quot;:10,&quot;curved&quot;:1,&quot;sourcePerimeterSpacing&quot;:0,&quot;targetPerimeterSpacing&quot;:0};" vertex="1" parent="1">
          <mxGeometry x="310" y="680" width="90" height="30" as="geometry" />
        </mxCell>
        <mxCell id="BI8iLUj6IKuQwwcAN_BR-21" value="练习界面" style="whiteSpace=wrap;html=1;rounded=1;arcSize=50;align=center;verticalAlign=middle;strokeWidth=1;autosize=1;spacing=4;treeFolding=1;treeMoving=1;newEdgeStyle={&quot;edgeStyle&quot;:&quot;entityRelationEdgeStyle&quot;,&quot;startArrow&quot;:&quot;none&quot;,&quot;endArrow&quot;:&quot;none&quot;,&quot;segment&quot;:10,&quot;curved&quot;:1,&quot;sourcePerimeterSpacing&quot;:0,&quot;targetPerimeterSpacing&quot;:0};" vertex="1" parent="1">
          <mxGeometry x="440" y="680" width="90" height="30" as="geometry" />
        </mxCell>
        <mxCell id="BI8iLUj6IKuQwwcAN_BR-23" value="创建时间" style="whiteSpace=wrap;html=1;rounded=1;arcSize=50;align=center;verticalAlign=middle;strokeWidth=1;autosize=1;spacing=4;treeFolding=1;treeMoving=1;newEdgeStyle={&quot;edgeStyle&quot;:&quot;entityRelationEdgeStyle&quot;,&quot;startArrow&quot;:&quot;none&quot;,&quot;endArrow&quot;:&quot;none&quot;,&quot;segment&quot;:10,&quot;curved&quot;:1,&quot;sourcePerimeterSpacing&quot;:0,&quot;targetPerimeterSpacing&quot;:0};" vertex="1" parent="1">
          <mxGeometry x="285" y="450" width="90" height="30" as="geometry" />
        </mxCell>
        <mxCell id="aTI2tNAHNMrIwuIER7Yk-1" style="edgeStyle=entityRelationEdgeStyle;rounded=0;orthogonalLoop=1;jettySize=auto;html=1;startArrow=none;endArrow=none;segment=10;curved=1;sourcePerimeterSpacing=0;targetPerimeterSpacing=0;entryX=0;entryY=0.5;entryDx=0;entryDy=0;" edge="1" parent="1" source="BI8iLUj6IKuQwwcAN_BR-26" target="BI8iLUj6IKuQwwcAN_BR-28">
          <mxGeometry relative="1" as="geometry" />
        </mxCell>
        <mxCell id="aTI2tNAHNMrIwuIER7Yk-2" value="" style="edgeStyle=entityRelationEdgeStyle;rounded=0;orthogonalLoop=1;jettySize=auto;html=1;startArrow=none;endArrow=none;segment=10;curved=1;sourcePerimeterSpacing=0;targetPerimeterSpacing=0;" edge="1" parent="1" source="BI8iLUj6IKuQwwcAN_BR-26" target="BI8iLUj6IKuQwwcAN_BR-28">
          <mxGeometry relative="1" as="geometry" />
        </mxCell>
        <mxCell id="aTI2tNAHNMrIwuIER7Yk-4" style="edgeStyle=entityRelationEdgeStyle;rounded=0;orthogonalLoop=1;jettySize=auto;html=1;startArrow=none;endArrow=none;segment=10;curved=1;sourcePerimeterSpacing=0;targetPerimeterSpacing=0;entryX=0;entryY=0.5;entryDx=0;entryDy=0;" edge="1" parent="1" source="BI8iLUj6IKuQwwcAN_BR-26" target="aTI2tNAHNMrIwuIER7Yk-3">
          <mxGeometry relative="1" as="geometry" />
        </mxCell>
        <mxCell id="aTI2tNAHNMrIwuIER7Yk-6" style="edgeStyle=entityRelationEdgeStyle;rounded=0;orthogonalLoop=1;jettySize=auto;html=1;startArrow=none;endArrow=none;segment=10;curved=1;sourcePerimeterSpacing=0;targetPerimeterSpacing=0;entryX=0;entryY=0.5;entryDx=0;entryDy=0;" edge="1" parent="1" source="BI8iLUj6IKuQwwcAN_BR-26" target="aTI2tNAHNMrIwuIER7Yk-5">
          <mxGeometry relative="1" as="geometry" />
        </mxCell>
        <mxCell id="aTI2tNAHNMrIwuIER7Yk-9" style="edgeStyle=entityRelationEdgeStyle;rounded=0;orthogonalLoop=1;jettySize=auto;html=1;startArrow=none;endArrow=none;segment=10;curved=1;sourcePerimeterSpacing=0;targetPerimeterSpacing=0;entryX=0;entryY=0.25;entryDx=0;entryDy=0;" edge="1" parent="1" source="BI8iLUj6IKuQwwcAN_BR-26" target="aTI2tNAHNMrIwuIER7Yk-7">
          <mxGeometry relative="1" as="geometry" />
        </mxCell>
        <mxCell id="BI8iLUj6IKuQwwcAN_BR-26" value="练习界面" style="ellipse;whiteSpace=wrap;html=1;align=center;newEdgeStyle={&quot;edgeStyle&quot;:&quot;entityRelationEdgeStyle&quot;,&quot;startArrow&quot;:&quot;none&quot;,&quot;endArrow&quot;:&quot;none&quot;,&quot;segment&quot;:10,&quot;curved&quot;:1,&quot;sourcePerimeterSpacing&quot;:0,&quot;targetPerimeterSpacing&quot;:0};treeFolding=1;treeMoving=1;" vertex="1" parent="1">
          <mxGeometry x="130" y="840" width="100" height="40" as="geometry" />
        </mxCell>
        <mxCell id="BI8iLUj6IKuQwwcAN_BR-28" value="结束练习" style="whiteSpace=wrap;html=1;rounded=1;arcSize=50;align=center;verticalAlign=middle;strokeWidth=1;autosize=1;spacing=4;treeFolding=1;treeMoving=1;newEdgeStyle={&quot;edgeStyle&quot;:&quot;entityRelationEdgeStyle&quot;,&quot;startArrow&quot;:&quot;none&quot;,&quot;endArrow&quot;:&quot;none&quot;,&quot;segment&quot;:10,&quot;curved&quot;:1,&quot;sourcePerimeterSpacing&quot;:0,&quot;targetPerimeterSpacing&quot;:0};" vertex="1" parent="1">
          <mxGeometry x="280" y="798" width="90" height="30" as="geometry" />
        </mxCell>
        <mxCell id="aTI2tNAHNMrIwuIER7Yk-3" value="习题一展示" style="whiteSpace=wrap;html=1;rounded=1;arcSize=50;align=center;verticalAlign=middle;strokeWidth=1;autosize=1;spacing=4;treeFolding=1;treeMoving=1;newEdgeStyle={&quot;edgeStyle&quot;:&quot;entityRelationEdgeStyle&quot;,&quot;startArrow&quot;:&quot;none&quot;,&quot;endArrow&quot;:&quot;none&quot;,&quot;segment&quot;:10,&quot;curved&quot;:1,&quot;sourcePerimeterSpacing&quot;:0,&quot;targetPerimeterSpacing&quot;:0};" vertex="1" parent="1">
          <mxGeometry x="275" y="845" width="100" height="30" as="geometry" />
        </mxCell>
        <mxCell id="aTI2tNAHNMrIwuIER7Yk-5" value="输入答案" style="whiteSpace=wrap;html=1;rounded=1;arcSize=50;align=center;verticalAlign=middle;strokeWidth=1;autosize=1;spacing=4;treeFolding=1;treeMoving=1;newEdgeStyle={&quot;edgeStyle&quot;:&quot;entityRelationEdgeStyle&quot;,&quot;startArrow&quot;:&quot;none&quot;,&quot;endArrow&quot;:&quot;none&quot;,&quot;segment&quot;:10,&quot;curved&quot;:1,&quot;sourcePerimeterSpacing&quot;:0,&quot;targetPerimeterSpacing&quot;:0};" vertex="1" parent="1">
          <mxGeometry x="280" y="890" width="90" height="30" as="geometry" />
        </mxCell>
        <mxCell id="aTI2tNAHNMrIwuIER7Yk-12" style="edgeStyle=entityRelationEdgeStyle;rounded=0;orthogonalLoop=1;jettySize=auto;html=1;startArrow=none;endArrow=none;segment=10;curved=1;sourcePerimeterSpacing=0;targetPerimeterSpacing=0;entryX=0;entryY=0.5;entryDx=0;entryDy=0;" edge="1" parent="1" source="aTI2tNAHNMrIwuIER7Yk-7" target="aTI2tNAHNMrIwuIER7Yk-10">
          <mxGeometry relative="1" as="geometry" />
        </mxCell>
        <mxCell id="aTI2tNAHNMrIwuIER7Yk-13" style="edgeStyle=entityRelationEdgeStyle;rounded=0;orthogonalLoop=1;jettySize=auto;html=1;startArrow=none;endArrow=none;segment=10;curved=1;sourcePerimeterSpacing=0;targetPerimeterSpacing=0;entryX=0;entryY=0.5;entryDx=0;entryDy=0;" edge="1" parent="1" source="aTI2tNAHNMrIwuIER7Yk-7" target="aTI2tNAHNMrIwuIER7Yk-11">
          <mxGeometry relative="1" as="geometry" />
        </mxCell>
        <mxCell id="aTI2tNAHNMrIwuIER7Yk-7" value="检查" style="whiteSpace=wrap;html=1;rounded=1;arcSize=50;align=center;verticalAlign=middle;strokeWidth=1;autosize=1;spacing=4;treeFolding=1;treeMoving=1;newEdgeStyle={&quot;edgeStyle&quot;:&quot;entityRelationEdgeStyle&quot;,&quot;startArrow&quot;:&quot;none&quot;,&quot;endArrow&quot;:&quot;none&quot;,&quot;segment&quot;:10,&quot;curved&quot;:1,&quot;sourcePerimeterSpacing&quot;:0,&quot;targetPerimeterSpacing&quot;:0};" vertex="1" parent="1">
          <mxGeometry x="280" y="940" width="70" height="30" as="geometry" />
        </mxCell>
        <mxCell id="aTI2tNAHNMrIwuIER7Yk-10" value="结果提示" style="whiteSpace=wrap;html=1;rounded=1;arcSize=50;align=center;verticalAlign=middle;strokeWidth=1;autosize=1;spacing=4;treeFolding=1;treeMoving=1;newEdgeStyle={&quot;edgeStyle&quot;:&quot;entityRelationEdgeStyle&quot;,&quot;startArrow&quot;:&quot;none&quot;,&quot;endArrow&quot;:&quot;none&quot;,&quot;segment&quot;:10,&quot;curved&quot;:1,&quot;sourcePerimeterSpacing&quot;:0,&quot;targetPerimeterSpacing&quot;:0};" vertex="1" parent="1">
          <mxGeometry x="390" y="900" width="90" height="30" as="geometry" />
        </mxCell>
        <mxCell id="aTI2tNAHNMrIwuIER7Yk-17" value="" style="edgeStyle=entityRelationEdgeStyle;rounded=0;orthogonalLoop=1;jettySize=auto;html=1;startArrow=none;endArrow=none;segment=10;curved=1;sourcePerimeterSpacing=0;targetPerimeterSpacing=0;" edge="1" parent="1" source="aTI2tNAHNMrIwuIER7Yk-11" target="aTI2tNAHNMrIwuIER7Yk-16">
          <mxGeometry relative="1" as="geometry" />
        </mxCell>
        <mxCell id="aTI2tNAHNMrIwuIER7Yk-22" style="edgeStyle=entityRelationEdgeStyle;rounded=0;orthogonalLoop=1;jettySize=auto;html=1;startArrow=none;endArrow=none;segment=10;curved=1;sourcePerimeterSpacing=0;targetPerimeterSpacing=0;entryX=0;entryY=0.5;entryDx=0;entryDy=0;" edge="1" parent="1" source="aTI2tNAHNMrIwuIER7Yk-11" target="aTI2tNAHNMrIwuIER7Yk-20">
          <mxGeometry relative="1" as="geometry" />
        </mxCell>
        <mxCell id="aTI2tNAHNMrIwuIER7Yk-11" value="继续" style="whiteSpace=wrap;html=1;rounded=1;arcSize=50;align=center;verticalAlign=middle;strokeWidth=1;autosize=1;spacing=4;treeFolding=1;treeMoving=1;newEdgeStyle={&quot;edgeStyle&quot;:&quot;entityRelationEdgeStyle&quot;,&quot;startArrow&quot;:&quot;none&quot;,&quot;endArrow&quot;:&quot;none&quot;,&quot;segment&quot;:10,&quot;curved&quot;:1,&quot;sourcePerimeterSpacing&quot;:0,&quot;targetPerimeterSpacing&quot;:0};" vertex="1" parent="1">
          <mxGeometry x="390" y="940" width="70" height="30" as="geometry" />
        </mxCell>
        <mxCell id="aTI2tNAHNMrIwuIER7Yk-16" value="练习界面（习题二）" style="whiteSpace=wrap;html=1;rounded=1;arcSize=50;align=center;verticalAlign=middle;strokeWidth=1;autosize=1;spacing=4;treeFolding=1;treeMoving=1;newEdgeStyle={&quot;edgeStyle&quot;:&quot;entityRelationEdgeStyle&quot;,&quot;startArrow&quot;:&quot;none&quot;,&quot;endArrow&quot;:&quot;none&quot;,&quot;segment&quot;:10,&quot;curved&quot;:1,&quot;sourcePerimeterSpacing&quot;:0,&quot;targetPerimeterSpacing&quot;:0};" vertex="1" parent="1">
          <mxGeometry x="500" y="910" width="150" height="30" as="geometry" />
        </mxCell>
        <mxCell id="aTI2tNAHNMrIwuIER7Yk-27" style="edgeStyle=entityRelationEdgeStyle;rounded=0;orthogonalLoop=1;jettySize=auto;html=1;startArrow=none;endArrow=none;segment=10;curved=1;sourcePerimeterSpacing=0;targetPerimeterSpacing=0;entryX=0;entryY=0.5;entryDx=0;entryDy=0;" edge="1" parent="1" source="aTI2tNAHNMrIwuIER7Yk-20" target="aTI2tNAHNMrIwuIER7Yk-26">
          <mxGeometry relative="1" as="geometry" />
        </mxCell>
        <mxCell id="aTI2tNAHNMrIwuIER7Yk-20" value="结束界面" style="whiteSpace=wrap;html=1;rounded=1;arcSize=50;align=center;verticalAlign=middle;strokeWidth=1;autosize=1;spacing=4;treeFolding=1;treeMoving=1;newEdgeStyle={&quot;edgeStyle&quot;:&quot;entityRelationEdgeStyle&quot;,&quot;startArrow&quot;:&quot;none&quot;,&quot;endArrow&quot;:&quot;none&quot;,&quot;segment&quot;:10,&quot;curved&quot;:1,&quot;sourcePerimeterSpacing&quot;:0,&quot;targetPerimeterSpacing&quot;:0};" vertex="1" parent="1">
          <mxGeometry x="500" y="960" width="90" height="30" as="geometry" />
        </mxCell>
        <mxCell id="aTI2tNAHNMrIwuIER7Yk-26" value="返回上一级" style="whiteSpace=wrap;html=1;rounded=1;arcSize=50;align=center;verticalAlign=middle;strokeWidth=1;autosize=1;spacing=4;treeFolding=1;treeMoving=1;newEdgeStyle={&quot;edgeStyle&quot;:&quot;entityRelationEdgeStyle&quot;,&quot;startArrow&quot;:&quot;none&quot;,&quot;endArrow&quot;:&quot;none&quot;,&quot;segment&quot;:10,&quot;curved&quot;:1,&quot;sourcePerimeterSpacing&quot;:0,&quot;targetPerimeterSpacing&quot;:0};" vertex="1" parent="1">
          <mxGeometry x="630" y="960" width="100" height="30" as="geometry" />
        </mxCell>
        <mxCell id="9LDfvEQCezsJGFnNgExV-5" style="edgeStyle=entityRelationEdgeStyle;rounded=0;orthogonalLoop=1;jettySize=auto;html=1;startArrow=none;endArrow=none;segment=10;curved=1;sourcePerimeterSpacing=0;targetPerimeterSpacing=0;entryX=0;entryY=0.5;entryDx=0;entryDy=0;" edge="1" parent="1" source="9LDfvEQCezsJGFnNgExV-2" target="9LDfvEQCezsJGFnNgExV-4">
          <mxGeometry relative="1" as="geometry" />
        </mxCell>
        <mxCell id="9LDfvEQCezsJGFnNgExV-2" value="推荐练习" style="whiteSpace=wrap;html=1;rounded=1;arcSize=50;align=center;verticalAlign=middle;strokeWidth=1;autosize=1;spacing=4;treeFolding=1;treeMoving=1;newEdgeStyle={&quot;edgeStyle&quot;:&quot;entityRelationEdgeStyle&quot;,&quot;startArrow&quot;:&quot;none&quot;,&quot;endArrow&quot;:&quot;none&quot;,&quot;segment&quot;:10,&quot;curved&quot;:1,&quot;sourcePerimeterSpacing&quot;:0,&quot;targetPerimeterSpacing&quot;:0};" vertex="1" parent="1">
          <mxGeometry x="380" y="280" width="90" height="30" as="geometry" />
        </mxCell>
        <mxCell id="9LDfvEQCezsJGFnNgExV-4" value="练习界面" style="whiteSpace=wrap;html=1;rounded=1;arcSize=50;align=center;verticalAlign=middle;strokeWidth=1;autosize=1;spacing=4;treeFolding=1;treeMoving=1;newEdgeStyle={&quot;edgeStyle&quot;:&quot;entityRelationEdgeStyle&quot;,&quot;startArrow&quot;:&quot;none&quot;,&quot;endArrow&quot;:&quot;none&quot;,&quot;segment&quot;:10,&quot;curved&quot;:1,&quot;sourcePerimeterSpacing&quot;:0,&quot;targetPerimeterSpacing&quot;:0};" vertex="1" parent="1">
          <mxGeometry x="490" y="280" width="90" height="30" as="geometry" />
        </mxCell>
      </root>
    </mxGraphModel>
  </diagram>
  <diagram id="QVWufMfRWLDjC4sEULDc" name="Upload Flow Diagram">
    <mxGraphModel dx="954" dy="606" grid="1" gridSize="10" guides="1" tooltips="1" connect="1" arrows="1" fold="1" page="1" pageScale="1" pageWidth="850" pageHeight="1100" math="0" shadow="0">
      <root>
        <mxCell id="0" />
        <mxCell id="1" parent="0" />
        <mxCell id="J4wntrJqxGd4Bw1hs-3T-4" style="edgeStyle=orthogonalEdgeStyle;rounded=0;orthogonalLoop=1;jettySize=auto;html=1;" edge="1" parent="1" source="J4wntrJqxGd4Bw1hs-3T-2" target="J4wntrJqxGd4Bw1hs-3T-3">
          <mxGeometry relative="1" as="geometry" />
        </mxCell>
        <mxCell id="J4wntrJqxGd4Bw1hs-3T-2" value="开始" style="ellipse;whiteSpace=wrap;html=1;aspect=fixed;" vertex="1" parent="1">
          <mxGeometry x="350" y="60" width="40" height="40" as="geometry" />
        </mxCell>
        <mxCell id="J4wntrJqxGd4Bw1hs-3T-16" style="edgeStyle=orthogonalEdgeStyle;rounded=0;orthogonalLoop=1;jettySize=auto;html=1;entryX=1;entryY=0.5;entryDx=0;entryDy=0;" edge="1" parent="1" source="J4wntrJqxGd4Bw1hs-3T-3" target="J4wntrJqxGd4Bw1hs-3T-14">
          <mxGeometry relative="1" as="geometry" />
        </mxCell>
        <mxCell id="J4wntrJqxGd4Bw1hs-3T-3" value="拍照" style="rounded=1;whiteSpace=wrap;html=1;" vertex="1" parent="1">
          <mxGeometry x="330" y="170" width="80" height="40" as="geometry" />
        </mxCell>
        <mxCell id="J4wntrJqxGd4Bw1hs-3T-11" style="edgeStyle=orthogonalEdgeStyle;rounded=0;orthogonalLoop=1;jettySize=auto;html=1;entryX=0.5;entryY=0;entryDx=0;entryDy=0;" edge="1" parent="1" source="J4wntrJqxGd4Bw1hs-3T-6" target="J4wntrJqxGd4Bw1hs-3T-9">
          <mxGeometry relative="1" as="geometry" />
        </mxCell>
        <mxCell id="J4wntrJqxGd4Bw1hs-3T-6" value="选取范围" style="rounded=1;whiteSpace=wrap;html=1;" vertex="1" parent="1">
          <mxGeometry x="330" y="250" width="80" height="40" as="geometry" />
        </mxCell>
        <mxCell id="J4wntrJqxGd4Bw1hs-3T-29" style="edgeStyle=orthogonalEdgeStyle;rounded=0;orthogonalLoop=1;jettySize=auto;html=1;entryX=0.5;entryY=0;entryDx=0;entryDy=0;" edge="1" parent="1" source="J4wntrJqxGd4Bw1hs-3T-7" target="J4wntrJqxGd4Bw1hs-3T-27">
          <mxGeometry relative="1" as="geometry" />
        </mxCell>
        <mxCell id="J4wntrJqxGd4Bw1hs-3T-7" value="查看错题详情" style="rounded=1;whiteSpace=wrap;html=1;" vertex="1" parent="1">
          <mxGeometry x="330" y="470" width="80" height="40" as="geometry" />
        </mxCell>
        <mxCell id="J4wntrJqxGd4Bw1hs-3T-13" style="edgeStyle=orthogonalEdgeStyle;rounded=0;orthogonalLoop=1;jettySize=auto;html=1;entryX=0.5;entryY=0;entryDx=0;entryDy=0;" edge="1" parent="1" source="J4wntrJqxGd4Bw1hs-3T-8" target="J4wntrJqxGd4Bw1hs-3T-7">
          <mxGeometry relative="1" as="geometry" />
        </mxCell>
        <mxCell id="J4wntrJqxGd4Bw1hs-3T-8" value="保存" style="rounded=1;whiteSpace=wrap;html=1;" vertex="1" parent="1">
          <mxGeometry x="330" y="400" width="80" height="40" as="geometry" />
        </mxCell>
        <mxCell id="J4wntrJqxGd4Bw1hs-3T-12" style="edgeStyle=orthogonalEdgeStyle;rounded=0;orthogonalLoop=1;jettySize=auto;html=1;" edge="1" parent="1" source="J4wntrJqxGd4Bw1hs-3T-9" target="J4wntrJqxGd4Bw1hs-3T-8">
          <mxGeometry relative="1" as="geometry" />
        </mxCell>
        <mxCell id="J4wntrJqxGd4Bw1hs-3T-23" style="edgeStyle=orthogonalEdgeStyle;rounded=0;orthogonalLoop=1;jettySize=auto;html=1;entryX=0;entryY=0.5;entryDx=0;entryDy=0;" edge="1" parent="1" source="J4wntrJqxGd4Bw1hs-3T-9" target="J4wntrJqxGd4Bw1hs-3T-22">
          <mxGeometry relative="1" as="geometry" />
        </mxCell>
        <mxCell id="J4wntrJqxGd4Bw1hs-3T-9" value="编辑修改" style="rounded=1;whiteSpace=wrap;html=1;" vertex="1" parent="1">
          <mxGeometry x="330" y="330" width="80" height="40" as="geometry" />
        </mxCell>
        <mxCell id="J4wntrJqxGd4Bw1hs-3T-17" style="edgeStyle=orthogonalEdgeStyle;rounded=0;orthogonalLoop=1;jettySize=auto;html=1;entryX=0.5;entryY=0;entryDx=0;entryDy=0;exitX=0.5;exitY=0;exitDx=0;exitDy=0;" edge="1" parent="1" source="J4wntrJqxGd4Bw1hs-3T-14" target="J4wntrJqxGd4Bw1hs-3T-3">
          <mxGeometry relative="1" as="geometry" />
        </mxCell>
        <mxCell id="J4wntrJqxGd4Bw1hs-3T-18" value="不好" style="edgeLabel;html=1;align=center;verticalAlign=middle;resizable=0;points=[];" vertex="1" connectable="0" parent="J4wntrJqxGd4Bw1hs-3T-17">
          <mxGeometry x="-0.1727" y="-1" relative="1" as="geometry">
            <mxPoint as="offset" />
          </mxGeometry>
        </mxCell>
        <mxCell id="J4wntrJqxGd4Bw1hs-3T-19" style="edgeStyle=orthogonalEdgeStyle;rounded=0;orthogonalLoop=1;jettySize=auto;html=1;entryX=0;entryY=0.5;entryDx=0;entryDy=0;exitX=0.5;exitY=1;exitDx=0;exitDy=0;" edge="1" parent="1" source="J4wntrJqxGd4Bw1hs-3T-14" target="J4wntrJqxGd4Bw1hs-3T-6">
          <mxGeometry relative="1" as="geometry" />
        </mxCell>
        <mxCell id="J4wntrJqxGd4Bw1hs-3T-20" value="好" style="edgeLabel;html=1;align=center;verticalAlign=middle;resizable=0;points=[];" vertex="1" connectable="0" parent="J4wntrJqxGd4Bw1hs-3T-19">
          <mxGeometry x="0.019" relative="1" as="geometry">
            <mxPoint as="offset" />
          </mxGeometry>
        </mxCell>
        <mxCell id="J4wntrJqxGd4Bw1hs-3T-14" value="照片效果" style="rhombus;whiteSpace=wrap;html=1;" vertex="1" parent="1">
          <mxGeometry x="190" y="150" width="80" height="80" as="geometry" />
        </mxCell>
        <mxCell id="J4wntrJqxGd4Bw1hs-3T-24" style="edgeStyle=orthogonalEdgeStyle;rounded=0;orthogonalLoop=1;jettySize=auto;html=1;entryX=0.5;entryY=0;entryDx=0;entryDy=0;exitX=0.5;exitY=0;exitDx=0;exitDy=0;" edge="1" parent="1" source="J4wntrJqxGd4Bw1hs-3T-22" target="J4wntrJqxGd4Bw1hs-3T-3">
          <mxGeometry relative="1" as="geometry" />
        </mxCell>
        <mxCell id="J4wntrJqxGd4Bw1hs-3T-22" value="取消" style="rounded=1;whiteSpace=wrap;html=1;" vertex="1" parent="1">
          <mxGeometry x="450" y="330" width="80" height="40" as="geometry" />
        </mxCell>
        <mxCell id="J4wntrJqxGd4Bw1hs-3T-27" value="结束" style="ellipse;whiteSpace=wrap;html=1;aspect=fixed;" vertex="1" parent="1">
          <mxGeometry x="350" y="540" width="40" height="40" as="geometry" />
        </mxCell>
      </root>
    </mxGraphModel>
  </diagram>
  <diagram id="hzp1A7aQvIP1Q4BMP8GR" name="Error Practice Flow Diagram">
    <mxGraphModel dx="954" dy="606" grid="1" gridSize="10" guides="1" tooltips="1" connect="1" arrows="1" fold="1" page="1" pageScale="1" pageWidth="850" pageHeight="1100" math="0" shadow="0">
      <root>
        <mxCell id="0" />
        <mxCell id="1" parent="0" />
        <mxCell id="_c1lF3-wB_oqk2GNL9NX-2" style="edgeStyle=orthogonalEdgeStyle;rounded=0;orthogonalLoop=1;jettySize=auto;html=1;entryX=0.5;entryY=0;entryDx=0;entryDy=0;exitX=0;exitY=0.5;exitDx=0;exitDy=0;" edge="1" parent="1" source="_c1lF3-wB_oqk2GNL9NX-4" target="e8IlKYkVR3NwlWsAKdaJ-4">
          <mxGeometry relative="1" as="geometry" />
        </mxCell>
        <mxCell id="_c1lF3-wB_oqk2GNL9NX-3" style="edgeStyle=orthogonalEdgeStyle;rounded=0;orthogonalLoop=1;jettySize=auto;html=1;entryX=0.5;entryY=0;entryDx=0;entryDy=0;exitX=1;exitY=0.5;exitDx=0;exitDy=0;" edge="1" parent="1" source="_c1lF3-wB_oqk2GNL9NX-4" target="_c1lF3-wB_oqk2GNL9NX-1">
          <mxGeometry relative="1" as="geometry" />
        </mxCell>
        <mxCell id="_c1lF3-wB_oqk2GNL9NX-5" style="edgeStyle=orthogonalEdgeStyle;rounded=0;orthogonalLoop=1;jettySize=auto;html=1;entryX=0.5;entryY=0;entryDx=0;entryDy=0;" edge="1" parent="1" source="e8IlKYkVR3NwlWsAKdaJ-1" target="_c1lF3-wB_oqk2GNL9NX-4">
          <mxGeometry relative="1" as="geometry" />
        </mxCell>
        <mxCell id="e8IlKYkVR3NwlWsAKdaJ-1" value="开始" style="ellipse;whiteSpace=wrap;html=1;aspect=fixed;" vertex="1" parent="1">
          <mxGeometry x="360" y="30" width="40" height="40" as="geometry" />
        </mxCell>
        <mxCell id="e8IlKYkVR3NwlWsAKdaJ-3" value="结束" style="ellipse;whiteSpace=wrap;html=1;aspect=fixed;" vertex="1" parent="1">
          <mxGeometry x="360" y="590" width="40" height="40" as="geometry" />
        </mxCell>
        <mxCell id="_c1lF3-wB_oqk2GNL9NX-11" style="edgeStyle=orthogonalEdgeStyle;rounded=0;orthogonalLoop=1;jettySize=auto;html=1;entryX=0.5;entryY=0;entryDx=0;entryDy=0;" edge="1" parent="1" source="e8IlKYkVR3NwlWsAKdaJ-4" target="_c1lF3-wB_oqk2GNL9NX-8">
          <mxGeometry relative="1" as="geometry" />
        </mxCell>
        <mxCell id="e8IlKYkVR3NwlWsAKdaJ-4" value="自主选取" style="rounded=1;whiteSpace=wrap;html=1;" vertex="1" parent="1">
          <mxGeometry x="250" y="170" width="80" height="40" as="geometry" />
        </mxCell>
        <mxCell id="_c1lF3-wB_oqk2GNL9NX-9" style="edgeStyle=orthogonalEdgeStyle;rounded=0;orthogonalLoop=1;jettySize=auto;html=1;entryX=0.5;entryY=0;entryDx=0;entryDy=0;" edge="1" parent="1" source="_c1lF3-wB_oqk2GNL9NX-1" target="_c1lF3-wB_oqk2GNL9NX-8">
          <mxGeometry relative="1" as="geometry" />
        </mxCell>
        <mxCell id="_c1lF3-wB_oqk2GNL9NX-1" value="随机推荐" style="rounded=1;whiteSpace=wrap;html=1;" vertex="1" parent="1">
          <mxGeometry x="440" y="170" width="80" height="40" as="geometry" />
        </mxCell>
        <mxCell id="_c1lF3-wB_oqk2GNL9NX-4" value="错题库浏览" style="rounded=1;whiteSpace=wrap;html=1;" vertex="1" parent="1">
          <mxGeometry x="340" y="120" width="80" height="40" as="geometry" />
        </mxCell>
        <mxCell id="_c1lF3-wB_oqk2GNL9NX-22" style="edgeStyle=orthogonalEdgeStyle;rounded=0;orthogonalLoop=1;jettySize=auto;html=1;" edge="1" parent="1" source="_c1lF3-wB_oqk2GNL9NX-6" target="_c1lF3-wB_oqk2GNL9NX-14">
          <mxGeometry relative="1" as="geometry" />
        </mxCell>
        <mxCell id="_c1lF3-wB_oqk2GNL9NX-6" value="输入答案" style="rounded=1;whiteSpace=wrap;html=1;" vertex="1" parent="1">
          <mxGeometry x="340" y="340" width="80" height="40" as="geometry" />
        </mxCell>
        <mxCell id="_c1lF3-wB_oqk2GNL9NX-21" style="edgeStyle=orthogonalEdgeStyle;rounded=0;orthogonalLoop=1;jettySize=auto;html=1;" edge="1" parent="1" source="_c1lF3-wB_oqk2GNL9NX-7" target="_c1lF3-wB_oqk2GNL9NX-6">
          <mxGeometry relative="1" as="geometry" />
        </mxCell>
        <mxCell id="_c1lF3-wB_oqk2GNL9NX-7" value="浏览题目" style="rounded=1;whiteSpace=wrap;html=1;" vertex="1" parent="1">
          <mxGeometry x="340" y="280" width="80" height="40" as="geometry" />
        </mxCell>
        <mxCell id="_c1lF3-wB_oqk2GNL9NX-12" style="edgeStyle=orthogonalEdgeStyle;rounded=0;orthogonalLoop=1;jettySize=auto;html=1;" edge="1" parent="1" source="_c1lF3-wB_oqk2GNL9NX-8" target="_c1lF3-wB_oqk2GNL9NX-7">
          <mxGeometry relative="1" as="geometry" />
        </mxCell>
        <mxCell id="_c1lF3-wB_oqk2GNL9NX-8" value="开始练习" style="rounded=1;whiteSpace=wrap;html=1;" vertex="1" parent="1">
          <mxGeometry x="340" y="220" width="80" height="40" as="geometry" />
        </mxCell>
        <mxCell id="_c1lF3-wB_oqk2GNL9NX-13" value="继续" style="rounded=1;whiteSpace=wrap;html=1;" vertex="1" parent="1">
          <mxGeometry x="340" y="460" width="80" height="40" as="geometry" />
        </mxCell>
        <mxCell id="_c1lF3-wB_oqk2GNL9NX-17" style="edgeStyle=orthogonalEdgeStyle;rounded=0;orthogonalLoop=1;jettySize=auto;html=1;entryX=0;entryY=0.5;entryDx=0;entryDy=0;exitX=1;exitY=0.5;exitDx=0;exitDy=0;" edge="1" parent="1" source="_c1lF3-wB_oqk2GNL9NX-13" target="_c1lF3-wB_oqk2GNL9NX-16">
          <mxGeometry relative="1" as="geometry" />
        </mxCell>
        <mxCell id="_c1lF3-wB_oqk2GNL9NX-23" style="edgeStyle=orthogonalEdgeStyle;rounded=0;orthogonalLoop=1;jettySize=auto;html=1;" edge="1" parent="1" source="_c1lF3-wB_oqk2GNL9NX-14" target="_c1lF3-wB_oqk2GNL9NX-13">
          <mxGeometry relative="1" as="geometry" />
        </mxCell>
        <mxCell id="_c1lF3-wB_oqk2GNL9NX-14" value="检查结果" style="rounded=1;whiteSpace=wrap;html=1;" vertex="1" parent="1">
          <mxGeometry x="340" y="400" width="80" height="40" as="geometry" />
        </mxCell>
        <mxCell id="_c1lF3-wB_oqk2GNL9NX-27" style="edgeStyle=orthogonalEdgeStyle;rounded=0;orthogonalLoop=1;jettySize=auto;html=1;entryX=0.5;entryY=0;entryDx=0;entryDy=0;" edge="1" parent="1" source="_c1lF3-wB_oqk2GNL9NX-15" target="e8IlKYkVR3NwlWsAKdaJ-3">
          <mxGeometry relative="1" as="geometry" />
        </mxCell>
        <mxCell id="_c1lF3-wB_oqk2GNL9NX-31" style="edgeStyle=orthogonalEdgeStyle;rounded=0;orthogonalLoop=1;jettySize=auto;html=1;" edge="1" parent="1" source="_c1lF3-wB_oqk2GNL9NX-15" target="_c1lF3-wB_oqk2GNL9NX-30">
          <mxGeometry relative="1" as="geometry" />
        </mxCell>
        <mxCell id="_c1lF3-wB_oqk2GNL9NX-15" value="结果庆祝界面" style="rounded=1;whiteSpace=wrap;html=1;" vertex="1" parent="1">
          <mxGeometry x="340" y="520" width="80" height="40" as="geometry" />
        </mxCell>
        <mxCell id="_c1lF3-wB_oqk2GNL9NX-18" style="edgeStyle=orthogonalEdgeStyle;rounded=0;orthogonalLoop=1;jettySize=auto;html=1;entryX=1;entryY=0.5;entryDx=0;entryDy=0;exitX=0.5;exitY=0;exitDx=0;exitDy=0;" edge="1" parent="1" source="_c1lF3-wB_oqk2GNL9NX-16" target="_c1lF3-wB_oqk2GNL9NX-7">
          <mxGeometry relative="1" as="geometry" />
        </mxCell>
        <mxCell id="_c1lF3-wB_oqk2GNL9NX-19" value="是" style="edgeLabel;html=1;align=center;verticalAlign=middle;resizable=0;points=[];" vertex="1" connectable="0" parent="_c1lF3-wB_oqk2GNL9NX-18">
          <mxGeometry x="0.1048" y="-1" relative="1" as="geometry">
            <mxPoint as="offset" />
          </mxGeometry>
        </mxCell>
        <mxCell id="_c1lF3-wB_oqk2GNL9NX-25" style="edgeStyle=orthogonalEdgeStyle;rounded=0;orthogonalLoop=1;jettySize=auto;html=1;entryX=1;entryY=0.5;entryDx=0;entryDy=0;exitX=0.5;exitY=1;exitDx=0;exitDy=0;" edge="1" parent="1" source="_c1lF3-wB_oqk2GNL9NX-16" target="_c1lF3-wB_oqk2GNL9NX-15">
          <mxGeometry relative="1" as="geometry" />
        </mxCell>
        <mxCell id="_c1lF3-wB_oqk2GNL9NX-26" value="否" style="edgeLabel;html=1;align=center;verticalAlign=middle;resizable=0;points=[];" vertex="1" connectable="0" parent="_c1lF3-wB_oqk2GNL9NX-25">
          <mxGeometry x="-0.1077" y="-2" relative="1" as="geometry">
            <mxPoint as="offset" />
          </mxGeometry>
        </mxCell>
        <mxCell id="_c1lF3-wB_oqk2GNL9NX-16" value="是否有下一题" style="rhombus;whiteSpace=wrap;html=1;" vertex="1" parent="1">
          <mxGeometry x="470" y="440" width="80" height="80" as="geometry" />
        </mxCell>
        <mxCell id="_c1lF3-wB_oqk2GNL9NX-32" style="edgeStyle=orthogonalEdgeStyle;rounded=0;orthogonalLoop=1;jettySize=auto;html=1;entryX=0.5;entryY=0;entryDx=0;entryDy=0;exitX=0.5;exitY=0;exitDx=0;exitDy=0;" edge="1" parent="1" source="_c1lF3-wB_oqk2GNL9NX-30" target="_c1lF3-wB_oqk2GNL9NX-4">
          <mxGeometry relative="1" as="geometry" />
        </mxCell>
        <mxCell id="_c1lF3-wB_oqk2GNL9NX-30" value="确定" style="rounded=1;whiteSpace=wrap;html=1;" vertex="1" parent="1">
          <mxGeometry x="170" y="520" width="80" height="40" as="geometry" />
        </mxCell>
      </root>
    </mxGraphModel>
  </diagram>
</mxfile>
